<?xml version='1.0' encoding='UTF-8' standalone='no'?>
<!-- Created with Fritzing (http://www.fritzing.org/) -->
<svg xmlns="http://www.w3.org/2000/svg" xmlns:svg="http://www.w3.org/2000/svg"  viewBox="0 0 52.6482 96.3383" x="0in" version="1.2" y="0in" baseProfile="tiny" width="0.731224in" height="1.33803in">
 <g partID="854122260">
  <g  id="board">
   <rect  stroke-width="0.5" x="0.288" id="boardoutline" y="0.288" fill="none" width="52.0722" height="95.7623" fill-opacity="0.5" stroke="black"/>
  </g>
 </g>
 <g partID="854125702">
  <g transform="translate(0.969141,1.69135)">
   <g id="copper1" flipped="1">
    <g transform="matrix(-1, 0, 0, 1, 50.4, 0)">
     <g>
      <g>
       <g gorn="0.5.0">
        <circle stroke-width="1.944" id="connector38pad" cy="10.8" fill="black" gorn="0.5.0.0" cx="46.8" r="2.052" stroke="black"/>
        <circle stroke-width="1.944" id="connector37pad" cy="18" fill="black" gorn="0.5.0.1" cx="46.8" r="2.052" stroke="black"/>
        <circle stroke-width="1.944" id="connector36pad" cy="25.2" fill="black" gorn="0.5.0.2" cx="46.8" r="2.052" stroke="black"/>
        <circle stroke-width="1.944" id="connector35pad" cy="32.4" fill="black" gorn="0.5.0.3" cx="46.8" r="2.052" stroke="black"/>
        <circle stroke-width="1.944" id="connector34pad" cy="39.6" fill="black" gorn="0.5.0.4" cx="46.8" r="2.052" stroke="black"/>
        <circle stroke-width="1.944" id="connector33pad" cy="46.8" fill="black" gorn="0.5.0.5" cx="46.8" r="2.052" stroke="black"/>
        <circle stroke-width="1.944" id="connector32pad" cy="54" fill="black" gorn="0.5.0.6" cx="46.8" r="2.052" stroke="black"/>
        <circle stroke-width="1.944" id="connector31pad" cy="61.2" fill="black" gorn="0.5.0.7" cx="46.8" r="2.052" stroke="black"/>
        <circle stroke-width="1.944" id="connector30pad" cy="68.4" fill="black" gorn="0.5.0.8" cx="46.8" r="2.052" stroke="black"/>
        <circle stroke-width="1.944" id="connector29pad" cy="75.6" fill="black" gorn="0.5.0.9" cx="46.8" r="2.052" stroke="black"/>
        <circle stroke-width="1.944" id="connector28pad" cy="82.8" fill="black" gorn="0.5.0.10" cx="46.8" r="2.052" stroke="black"/>
        <circle stroke-width="1.944" id="connector27pad" cy="90" fill="black" gorn="0.5.0.11" cx="46.8" r="2.052" stroke="black"/>
        <circle stroke-width="1.944" id="connector26pad" cy="90" fill="black" gorn="0.5.0.12" cx="3.6" r="2.052" stroke="black"/>
        <circle stroke-width="1.944" id="connector25pad" cy="82.8" fill="black" gorn="0.5.0.13" cx="3.6" r="2.052" stroke="black"/>
        <circle stroke-width="1.944" id="connector23pad" cy="75.6" fill="black" gorn="0.5.0.14" cx="3.6" r="2.052" stroke="black"/>
        <circle stroke-width="1.944" id="connector22pad" cy="68.4" fill="black" gorn="0.5.0.15" cx="3.6" r="2.052" stroke="black"/>
        <circle stroke-width="1.944" id="connector21pad" cy="61.2" fill="black" gorn="0.5.0.16" cx="3.6" r="2.052" stroke="black"/>
        <circle stroke-width="1.944" id="connector20pad" cy="54" fill="black" gorn="0.5.0.17" cx="3.6" r="2.052" stroke="black"/>
        <circle stroke-width="1.944" id="connector19pad" cy="46.8" fill="black" gorn="0.5.0.18" cx="3.6" r="2.052" stroke="black"/>
        <circle stroke-width="1.944" id="connector18pad" cy="39.6" fill="black" gorn="0.5.0.19" cx="3.6" r="2.052" stroke="black"/>
        <circle stroke-width="1.944" id="connector17pad" cy="32.4" fill="black" gorn="0.5.0.20" cx="3.6" r="2.052" stroke="black"/>
        <circle stroke-width="1.944" id="connector16pad" cy="25.2" fill="black" gorn="0.5.0.21" cx="3.6" r="2.052" stroke="black"/>
        <circle stroke-width="1.944" id="connector15pad" cy="18" fill="black" gorn="0.5.0.22" cx="3.6" r="2.052" stroke="black"/>
        <circle stroke-width="1.944" id="connector0pad" cy="10.8" fill="black" gorn="0.5.0.23" cx="3.6" r="2.052" stroke="black"/>
        <rect stroke-width="2.26231" x="1.70716" id="connector14pad" y="8.90715" fill="black" width="3.78569" height="3.78569" gorn="0.5.0.24" stroke="black"/>
       </g>
       <g gorn="0.5">
        <g id="copper0" gorn="0.5.0">
         <circle stroke-width="1.944" id="connector38pad" cy="10.8" fill="black" gorn="0.5.0.0" cx="46.8" r="2.052" stroke="black"/>
         <circle stroke-width="1.944" id="connector37pad" cy="18" fill="black" gorn="0.5.0.1" cx="46.8" r="2.052" stroke="black"/>
         <circle stroke-width="1.944" id="connector36pad" cy="25.2" fill="black" gorn="0.5.0.2" cx="46.8" r="2.052" stroke="black"/>
         <circle stroke-width="1.944" id="connector35pad" cy="32.4" fill="black" gorn="0.5.0.3" cx="46.8" r="2.052" stroke="black"/>
         <circle stroke-width="1.944" id="connector34pad" cy="39.6" fill="black" gorn="0.5.0.4" cx="46.8" r="2.052" stroke="black"/>
         <circle stroke-width="1.944" id="connector33pad" cy="46.8" fill="black" gorn="0.5.0.5" cx="46.8" r="2.052" stroke="black"/>
         <circle stroke-width="1.944" id="connector32pad" cy="54" fill="black" gorn="0.5.0.6" cx="46.8" r="2.052" stroke="black"/>
         <circle stroke-width="1.944" id="connector31pad" cy="61.2" fill="black" gorn="0.5.0.7" cx="46.8" r="2.052" stroke="black"/>
         <circle stroke-width="1.944" id="connector30pad" cy="68.4" fill="black" gorn="0.5.0.8" cx="46.8" r="2.052" stroke="black"/>
         <circle stroke-width="1.944" id="connector29pad" cy="75.6" fill="black" gorn="0.5.0.9" cx="46.8" r="2.052" stroke="black"/>
         <circle stroke-width="1.944" id="connector28pad" cy="82.8" fill="black" gorn="0.5.0.10" cx="46.8" r="2.052" stroke="black"/>
         <circle stroke-width="1.944" id="connector27pad" cy="90" fill="black" gorn="0.5.0.11" cx="46.8" r="2.052" stroke="black"/>
         <circle stroke-width="1.944" id="connector26pad" cy="90" fill="black" gorn="0.5.0.12" cx="3.6" r="2.052" stroke="black"/>
         <circle stroke-width="1.944" id="connector25pad" cy="82.8" fill="black" gorn="0.5.0.13" cx="3.6" r="2.052" stroke="black"/>
         <circle stroke-width="1.944" id="connector23pad" cy="75.6" fill="black" gorn="0.5.0.14" cx="3.6" r="2.052" stroke="black"/>
         <circle stroke-width="1.944" id="connector22pad" cy="68.4" fill="black" gorn="0.5.0.15" cx="3.6" r="2.052" stroke="black"/>
         <circle stroke-width="1.944" id="connector21pad" cy="61.2" fill="black" gorn="0.5.0.16" cx="3.6" r="2.052" stroke="black"/>
         <circle stroke-width="1.944" id="connector20pad" cy="54" fill="black" gorn="0.5.0.17" cx="3.6" r="2.052" stroke="black"/>
         <circle stroke-width="1.944" id="connector19pad" cy="46.8" fill="black" gorn="0.5.0.18" cx="3.6" r="2.052" stroke="black"/>
         <circle stroke-width="1.944" id="connector18pad" cy="39.6" fill="black" gorn="0.5.0.19" cx="3.6" r="2.052" stroke="black"/>
         <circle stroke-width="1.944" id="connector17pad" cy="32.4" fill="black" gorn="0.5.0.20" cx="3.6" r="2.052" stroke="black"/>
         <circle stroke-width="1.944" id="connector16pad" cy="25.2" fill="black" gorn="0.5.0.21" cx="3.6" r="2.052" stroke="black"/>
         <circle stroke-width="1.944" id="connector15pad" cy="18" fill="black" gorn="0.5.0.22" cx="3.6" r="2.052" stroke="black"/>
         <circle stroke-width="1.944" id="connector0pad" cy="10.8" fill="black" gorn="0.5.0.23" cx="3.6" r="2.052" stroke="black"/>
         <rect stroke-width="2.26231" x="1.70716" id="connector14pad" y="8.90715" fill="black" width="3.78569" height="3.78569" gorn="0.5.0.24" stroke="black"/>
        </g>
       </g>
      </g>
     </g>
    </g>
   </g>
  </g>
 </g>
 <g partID="854128252">
  <g transform="translate(11.3965,6.49773)">
   <g  id="copper1">
    <circle  stroke-width="1.44" id="connector0pad" cy="3.78" fill="black" connectorname="P$1" cx="3.78" r="1.77732" stroke="black"/>
    <path  stroke-width="0.72" d="m1.64268,1.64268,4.27465,0,0,4.27465,-4.27465,0,0,-4.27465zM2.36268,3.78a1.41732,1.41732,0,1,0,2.83465,0,1.41732,1.41732,0,1,0,-2.83465,0z" fill="black" stroke="black"/>
    <circle  stroke-width="1.44" id="connector1pad" cy="3.78" fill="black" connectorname="P$2" cx="25.38" r="1.77732" stroke="black"/>
    <path  stroke-width="0.72" d="m23.2427,1.64268,4.27465,0,0,4.27465,-4.27465,0,0,-4.27465zM23.9627,3.78a1.41732,1.41732,0,1,0,2.83465,0,1.41732,1.41732,0,1,0,-2.83465,0z" fill="black" stroke="black"/>
    <circle  stroke-width="1.44" id="connector2pad" cy="18.18" fill="black" connectorname="P$3" cx="3.78" r="1.77732" stroke="black"/>
    <path  stroke-width="0.72" d="m1.64268,16.0427,4.27465,0,0,4.27465,-4.27465,0,0,-4.27465zM2.36268,18.18a1.41732,1.41732,0,1,0,2.83465,0,1.41732,1.41732,0,1,0,-2.83465,0z" fill="black" stroke="black"/>
    <circle  stroke-width="1.44" id="connector3pad" cy="18.18" fill="black" connectorname="P$4" cx="25.38" r="1.77732" stroke="black"/>
    <path  stroke-width="0.72" d="m23.2427,16.0427,4.27465,0,0,4.27465,-4.27465,0,0,-4.27465zM23.9627,18.18a1.41732,1.41732,0,1,0,2.83465,0,1.41732,1.41732,0,1,0,-2.83465,0z" fill="black" stroke="black"/>
    <g  id="copper0">
     <circle  stroke-width="1.44" id="connector0pad" cy="3.78" fill="black" connectorname="P$1" cx="3.78" r="1.77732" stroke="black"/>
     <path  stroke-width="0.72" d="m1.64268,1.64268,4.27465,0,0,4.27465,-4.27465,0,0,-4.27465zM2.36268,3.78a1.41732,1.41732,0,1,0,2.83465,0,1.41732,1.41732,0,1,0,-2.83465,0z" fill="black" stroke="black"/>
     <circle  stroke-width="1.44" id="connector1pad" cy="3.78" fill="black" connectorname="P$2" cx="25.38" r="1.77732" stroke="black"/>
     <path  stroke-width="0.72" d="m23.2427,1.64268,4.27465,0,0,4.27465,-4.27465,0,0,-4.27465zM23.9627,3.78a1.41732,1.41732,0,1,0,2.83465,0,1.41732,1.41732,0,1,0,-2.83465,0z" fill="black" stroke="black"/>
     <circle  stroke-width="1.44" id="connector2pad" cy="18.18" fill="black" connectorname="P$3" cx="3.78" r="1.77732" stroke="black"/>
     <path  stroke-width="0.72" d="m1.64268,16.0427,4.27465,0,0,4.27465,-4.27465,0,0,-4.27465zM2.36268,18.18a1.41732,1.41732,0,1,0,2.83465,0,1.41732,1.41732,0,1,0,-2.83465,0z" fill="black" stroke="black"/>
     <circle  stroke-width="1.44" id="connector3pad" cy="18.18" fill="black" connectorname="P$4" cx="25.38" r="1.77732" stroke="black"/>
     <path  stroke-width="0.72" d="m23.2427,16.0427,4.27465,0,0,4.27465,-4.27465,0,0,-4.27465zM23.9627,18.18a1.41732,1.41732,0,1,0,2.83465,0,1.41732,1.41732,0,1,0,-2.83465,0z" fill="black" stroke="black"/>
    </g>
   </g>
  </g>
 </g>
 <g partID="854128282">
  <g transform="translate(12.1906,65.7056)">
   <g  id="copper1">
    <circle  stroke-width="1.44" id="connector0pad" cy="3.78" fill="black" connectorname="P$1" cx="3.78" r="1.77732" stroke="black"/>
    <path  stroke-width="0.72" d="m1.64268,1.64268,4.27465,0,0,4.27465,-4.27465,0,0,-4.27465zM2.36268,3.78a1.41732,1.41732,0,1,0,2.83465,0,1.41732,1.41732,0,1,0,-2.83465,0z" fill="black" stroke="black"/>
    <circle  stroke-width="1.44" id="connector1pad" cy="3.78" fill="black" connectorname="P$2" cx="25.38" r="1.77732" stroke="black"/>
    <path  stroke-width="0.72" d="m23.2427,1.64268,4.27465,0,0,4.27465,-4.27465,0,0,-4.27465zM23.9627,3.78a1.41732,1.41732,0,1,0,2.83465,0,1.41732,1.41732,0,1,0,-2.83465,0z" fill="black" stroke="black"/>
    <circle  stroke-width="1.44" id="connector2pad" cy="18.18" fill="black" connectorname="P$3" cx="3.78" r="1.77732" stroke="black"/>
    <path  stroke-width="0.72" d="m1.64268,16.0427,4.27465,0,0,4.27465,-4.27465,0,0,-4.27465zM2.36268,18.18a1.41732,1.41732,0,1,0,2.83465,0,1.41732,1.41732,0,1,0,-2.83465,0z" fill="black" stroke="black"/>
    <circle  stroke-width="1.44" id="connector3pad" cy="18.18" fill="black" connectorname="P$4" cx="25.38" r="1.77732" stroke="black"/>
    <path  stroke-width="0.72" d="m23.2427,16.0427,4.27465,0,0,4.27465,-4.27465,0,0,-4.27465zM23.9627,18.18a1.41732,1.41732,0,1,0,2.83465,0,1.41732,1.41732,0,1,0,-2.83465,0z" fill="black" stroke="black"/>
    <g  id="copper0">
     <circle  stroke-width="1.44" id="connector0pad" cy="3.78" fill="black" connectorname="P$1" cx="3.78" r="1.77732" stroke="black"/>
     <path  stroke-width="0.72" d="m1.64268,1.64268,4.27465,0,0,4.27465,-4.27465,0,0,-4.27465zM2.36268,3.78a1.41732,1.41732,0,1,0,2.83465,0,1.41732,1.41732,0,1,0,-2.83465,0z" fill="black" stroke="black"/>
     <circle  stroke-width="1.44" id="connector1pad" cy="3.78" fill="black" connectorname="P$2" cx="25.38" r="1.77732" stroke="black"/>
     <path  stroke-width="0.72" d="m23.2427,1.64268,4.27465,0,0,4.27465,-4.27465,0,0,-4.27465zM23.9627,3.78a1.41732,1.41732,0,1,0,2.83465,0,1.41732,1.41732,0,1,0,-2.83465,0z" fill="black" stroke="black"/>
     <circle  stroke-width="1.44" id="connector2pad" cy="18.18" fill="black" connectorname="P$3" cx="3.78" r="1.77732" stroke="black"/>
     <path  stroke-width="0.72" d="m1.64268,16.0427,4.27465,0,0,4.27465,-4.27465,0,0,-4.27465zM2.36268,18.18a1.41732,1.41732,0,1,0,2.83465,0,1.41732,1.41732,0,1,0,-2.83465,0z" fill="black" stroke="black"/>
     <circle  stroke-width="1.44" id="connector3pad" cy="18.18" fill="black" connectorname="P$4" cx="25.38" r="1.77732" stroke="black"/>
     <path  stroke-width="0.72" d="m23.2427,16.0427,4.27465,0,0,4.27465,-4.27465,0,0,-4.27465zM23.9627,18.18a1.41732,1.41732,0,1,0,2.83465,0,1.41732,1.41732,0,1,0,-2.83465,0z" fill="black" stroke="black"/>
    </g>
   </g>
  </g>
 </g>
 <g partID="854154682">
  <g transform="translate(9.14624,32.6807)">
   <g transform="matrix(1, 0, 0, 1, 0.00235574, 0)">
    <g id="copper1">
     <g gorn="0.2.0.0.1">
      <g id="copper0" gorn="0.2.0.0.1.0">
       <circle stroke-width="1.44" id="connector0pad" cy="22.6421" fill="black" connectorname="P$4" gorn="0.2.0.0.1.0.0" cx="2.98873" r="1.77732" stroke="black"/>
       <circle stroke-width="1.44" id="connector1pad" cy="15.4572" fill="black" connectorname="P$4" gorn="0.2.0.0.1.0.1" cx="2.98873" r="1.77732" stroke="black"/>
       <circle stroke-width="1.44" id="connector2pad" cy="4.6885" fill="black" connectorname="P$4" gorn="0.2.0.0.1.0.2" cx="2.98873" r="1.77732" stroke="black"/>
       <circle stroke-width="1.44" id="connector3pad" cy="4.6885" fill="black" connectorname="P$4" gorn="0.2.0.0.1.0.3" cx="31.0517" r="1.77732" stroke="black"/>
       <circle stroke-width="1.44" id="connector4pad" cy="15.4572" fill="black" connectorname="P$4" gorn="0.2.0.0.1.0.4" cx="31.0517" r="1.77732" stroke="black"/>
       <circle stroke-width="1.44" id="connector5pad" cy="22.6421" fill="black" connectorname="P$4" gorn="0.2.0.0.1.0.5" cx="31.0517" r="1.77732" stroke="black"/>
       <path stroke-width="0.72" d="M0.851411,20.5048L5.12606,20.5048l0,4.27465L0.851411,24.7795Zm0.72,2.13732a1.41732,1.41732,0,1,0,2.83465,0,1.41732,1.41732,0,1,0,-2.83465,0z" id="connector0pin" fill="black" gorn="0.2.0.0.1.0.6" stroke="black"/>
       <path stroke-width="0.72" d="M0.851411,13.3198L5.12606,13.3198l0,4.27465L0.851411,17.5945Zm0.72,2.13732a1.41732,1.41732,0,1,0,2.83465,0,1.41732,1.41732,0,1,0,-2.83465,0z" id="connector1pin" fill="black" gorn="0.2.0.0.1.0.7" stroke="black"/>
       <path stroke-width="0.72" d="M0.851411,2.55118L5.12606,2.55118L5.12606,6.82583L0.851411,6.82583Zm0.72,2.13732a1.41732,1.41732,0,1,0,2.83465,0,1.41732,1.41732,0,1,0,-2.83465,0z" id="connector2pin" fill="black" gorn="0.2.0.0.1.0.8" stroke="black"/>
       <path stroke-width="0.72" d="m28.9145,2.55118l4.27465,0l0,4.27465l-4.27465,0zm0.72,2.13732a1.41732,1.41732,0,1,0,2.83465,0,1.41732,1.41732,0,1,0,-2.83465,0z" id="connector3pin" fill="black" gorn="0.2.0.0.1.0.9" stroke="black"/>
       <path stroke-width="0.72" d="m28.9145,13.3198l4.27465,0l0,4.27465l-4.27465,0zm0.72,2.13732a1.41732,1.41732,0,1,0,2.83465,0,1.41732,1.41732,0,1,0,-2.83465,0z" id="connector4pin" fill="black" gorn="0.2.0.0.1.0.10" stroke="black"/>
       <path stroke-width="0.72" d="m28.9145,20.5048l4.27465,0l0,4.27465l-4.27465,0zm0.72,2.13732a1.41732,1.41732,0,1,0,2.83465,0,1.41732,1.41732,0,1,0,-2.83465,0z" id="connector5pin" fill="black" gorn="0.2.0.0.1.0.11" stroke="black"/>
      </g>
     </g>
    </g>
   </g>
  </g>
 </g>
</svg>
