G04 MADE WITH FRITZING*
G04 WWW.FRITZING.ORG*
G04 DOUBLE SIDED*
G04 HOLES PLATED*
G04 CONTOUR ON CENTER OF CONTOUR VECTOR*
%ASAXBY*%
%FSLAX23Y23*%
%MOIN*%
%OFA0B0*%
%SFA1.0B1.0*%
%ADD10C,0.069370*%
%ADD11C,0.084000*%
%ADD12R,0.084000X0.084000*%
%ADD13R,0.001000X0.001000*%
%LNMASK0*%
G90*
G70*
G54D10*
X169Y570D03*
X169Y669D03*
X169Y819D03*
X558Y819D03*
X558Y669D03*
X558Y570D03*
G54D11*
X63Y1165D03*
X63Y1065D03*
X63Y965D03*
X63Y865D03*
X63Y765D03*
X63Y665D03*
X63Y565D03*
X63Y465D03*
X63Y365D03*
X63Y265D03*
X63Y165D03*
X63Y65D03*
X663Y65D03*
X663Y165D03*
X663Y265D03*
X663Y365D03*
X663Y465D03*
X663Y565D03*
X663Y665D03*
X663Y765D03*
X663Y865D03*
X663Y965D03*
X663Y1065D03*
X663Y1165D03*
X63Y1165D03*
X63Y1065D03*
X63Y965D03*
X63Y865D03*
X63Y765D03*
X63Y665D03*
X63Y565D03*
X63Y465D03*
X63Y365D03*
X63Y265D03*
X63Y165D03*
X63Y65D03*
X663Y65D03*
X663Y165D03*
X663Y265D03*
X663Y365D03*
X663Y465D03*
X663Y565D03*
X663Y665D03*
X663Y765D03*
X663Y865D03*
X663Y965D03*
X663Y1065D03*
X663Y1165D03*
G54D10*
X222Y373D03*
X522Y373D03*
X222Y173D03*
X522Y173D03*
X211Y1195D03*
X511Y1195D03*
X211Y995D03*
X511Y995D03*
G54D12*
X663Y1165D03*
X663Y1165D03*
G54D13*
X177Y1230D02*
X245Y1230D01*
X477Y1230D02*
X545Y1230D01*
X177Y1229D02*
X245Y1229D01*
X477Y1229D02*
X545Y1229D01*
X177Y1228D02*
X245Y1228D01*
X477Y1228D02*
X545Y1228D01*
X177Y1227D02*
X245Y1227D01*
X477Y1227D02*
X545Y1227D01*
X177Y1226D02*
X245Y1226D01*
X477Y1226D02*
X545Y1226D01*
X177Y1225D02*
X245Y1225D01*
X477Y1225D02*
X545Y1225D01*
X177Y1224D02*
X245Y1224D01*
X477Y1224D02*
X545Y1224D01*
X177Y1223D02*
X245Y1223D01*
X477Y1223D02*
X545Y1223D01*
X177Y1222D02*
X245Y1222D01*
X477Y1222D02*
X545Y1222D01*
X177Y1221D02*
X245Y1221D01*
X477Y1221D02*
X545Y1221D01*
X177Y1220D02*
X245Y1220D01*
X477Y1220D02*
X545Y1220D01*
X177Y1219D02*
X245Y1219D01*
X477Y1219D02*
X545Y1219D01*
X177Y1218D02*
X245Y1218D01*
X477Y1218D02*
X545Y1218D01*
X177Y1217D02*
X245Y1217D01*
X477Y1217D02*
X545Y1217D01*
X177Y1216D02*
X245Y1216D01*
X477Y1216D02*
X545Y1216D01*
X177Y1215D02*
X245Y1215D01*
X477Y1215D02*
X545Y1215D01*
X177Y1214D02*
X245Y1214D01*
X477Y1214D02*
X545Y1214D01*
X177Y1213D02*
X245Y1213D01*
X477Y1213D02*
X545Y1213D01*
X177Y1212D02*
X245Y1212D01*
X477Y1212D02*
X545Y1212D01*
X177Y1211D02*
X245Y1211D01*
X477Y1211D02*
X545Y1211D01*
X177Y1210D02*
X207Y1210D01*
X215Y1210D02*
X245Y1210D01*
X477Y1210D02*
X507Y1210D01*
X515Y1210D02*
X545Y1210D01*
X177Y1209D02*
X204Y1209D01*
X218Y1209D02*
X245Y1209D01*
X477Y1209D02*
X504Y1209D01*
X518Y1209D02*
X545Y1209D01*
X177Y1208D02*
X203Y1208D01*
X220Y1208D02*
X245Y1208D01*
X477Y1208D02*
X502Y1208D01*
X520Y1208D02*
X545Y1208D01*
X177Y1207D02*
X201Y1207D01*
X221Y1207D02*
X245Y1207D01*
X477Y1207D02*
X501Y1207D01*
X521Y1207D02*
X545Y1207D01*
X177Y1206D02*
X200Y1206D01*
X222Y1206D02*
X245Y1206D01*
X477Y1206D02*
X500Y1206D01*
X522Y1206D02*
X545Y1206D01*
X177Y1205D02*
X199Y1205D01*
X223Y1205D02*
X245Y1205D01*
X477Y1205D02*
X499Y1205D01*
X523Y1205D02*
X545Y1205D01*
X177Y1204D02*
X199Y1204D01*
X224Y1204D02*
X245Y1204D01*
X477Y1204D02*
X498Y1204D01*
X524Y1204D02*
X545Y1204D01*
X177Y1203D02*
X198Y1203D01*
X225Y1203D02*
X245Y1203D01*
X477Y1203D02*
X498Y1203D01*
X524Y1203D02*
X545Y1203D01*
X177Y1202D02*
X197Y1202D01*
X225Y1202D02*
X245Y1202D01*
X477Y1202D02*
X497Y1202D01*
X525Y1202D02*
X545Y1202D01*
X177Y1201D02*
X197Y1201D01*
X225Y1201D02*
X245Y1201D01*
X477Y1201D02*
X497Y1201D01*
X525Y1201D02*
X545Y1201D01*
X177Y1200D02*
X197Y1200D01*
X226Y1200D02*
X245Y1200D01*
X477Y1200D02*
X497Y1200D01*
X526Y1200D02*
X545Y1200D01*
X177Y1199D02*
X196Y1199D01*
X226Y1199D02*
X245Y1199D01*
X477Y1199D02*
X496Y1199D01*
X526Y1199D02*
X545Y1199D01*
X177Y1198D02*
X196Y1198D01*
X226Y1198D02*
X245Y1198D01*
X477Y1198D02*
X496Y1198D01*
X526Y1198D02*
X545Y1198D01*
X177Y1197D02*
X196Y1197D01*
X226Y1197D02*
X245Y1197D01*
X477Y1197D02*
X496Y1197D01*
X526Y1197D02*
X545Y1197D01*
X177Y1196D02*
X196Y1196D01*
X226Y1196D02*
X245Y1196D01*
X477Y1196D02*
X496Y1196D01*
X526Y1196D02*
X545Y1196D01*
X177Y1195D02*
X196Y1195D01*
X226Y1195D02*
X245Y1195D01*
X477Y1195D02*
X496Y1195D01*
X526Y1195D02*
X545Y1195D01*
X177Y1194D02*
X196Y1194D01*
X226Y1194D02*
X245Y1194D01*
X477Y1194D02*
X496Y1194D01*
X526Y1194D02*
X545Y1194D01*
X177Y1193D02*
X196Y1193D01*
X226Y1193D02*
X245Y1193D01*
X477Y1193D02*
X496Y1193D01*
X526Y1193D02*
X545Y1193D01*
X177Y1192D02*
X197Y1192D01*
X226Y1192D02*
X245Y1192D01*
X477Y1192D02*
X496Y1192D01*
X526Y1192D02*
X545Y1192D01*
X177Y1191D02*
X197Y1191D01*
X226Y1191D02*
X245Y1191D01*
X477Y1191D02*
X497Y1191D01*
X526Y1191D02*
X545Y1191D01*
X177Y1190D02*
X197Y1190D01*
X225Y1190D02*
X245Y1190D01*
X477Y1190D02*
X497Y1190D01*
X525Y1190D02*
X545Y1190D01*
X177Y1189D02*
X198Y1189D01*
X225Y1189D02*
X245Y1189D01*
X477Y1189D02*
X498Y1189D01*
X525Y1189D02*
X545Y1189D01*
X177Y1188D02*
X198Y1188D01*
X224Y1188D02*
X245Y1188D01*
X477Y1188D02*
X498Y1188D01*
X524Y1188D02*
X545Y1188D01*
X177Y1187D02*
X199Y1187D01*
X223Y1187D02*
X245Y1187D01*
X477Y1187D02*
X499Y1187D01*
X523Y1187D02*
X545Y1187D01*
X177Y1186D02*
X200Y1186D01*
X223Y1186D02*
X245Y1186D01*
X477Y1186D02*
X500Y1186D01*
X523Y1186D02*
X545Y1186D01*
X177Y1185D02*
X201Y1185D01*
X222Y1185D02*
X245Y1185D01*
X477Y1185D02*
X501Y1185D01*
X522Y1185D02*
X545Y1185D01*
X177Y1184D02*
X202Y1184D01*
X220Y1184D02*
X245Y1184D01*
X477Y1184D02*
X502Y1184D01*
X520Y1184D02*
X545Y1184D01*
X177Y1183D02*
X203Y1183D01*
X219Y1183D02*
X245Y1183D01*
X477Y1183D02*
X503Y1183D01*
X519Y1183D02*
X545Y1183D01*
X177Y1182D02*
X205Y1182D01*
X217Y1182D02*
X245Y1182D01*
X477Y1182D02*
X505Y1182D01*
X517Y1182D02*
X545Y1182D01*
X177Y1181D02*
X245Y1181D01*
X477Y1181D02*
X545Y1181D01*
X177Y1180D02*
X245Y1180D01*
X477Y1180D02*
X545Y1180D01*
X177Y1179D02*
X245Y1179D01*
X477Y1179D02*
X545Y1179D01*
X177Y1178D02*
X245Y1178D01*
X477Y1178D02*
X545Y1178D01*
X177Y1177D02*
X245Y1177D01*
X477Y1177D02*
X545Y1177D01*
X177Y1176D02*
X245Y1176D01*
X477Y1176D02*
X545Y1176D01*
X177Y1175D02*
X245Y1175D01*
X477Y1175D02*
X545Y1175D01*
X177Y1174D02*
X245Y1174D01*
X477Y1174D02*
X545Y1174D01*
X177Y1173D02*
X245Y1173D01*
X477Y1173D02*
X545Y1173D01*
X177Y1172D02*
X245Y1172D01*
X477Y1172D02*
X545Y1172D01*
X177Y1171D02*
X245Y1171D01*
X477Y1171D02*
X545Y1171D01*
X177Y1170D02*
X245Y1170D01*
X477Y1170D02*
X545Y1170D01*
X177Y1169D02*
X245Y1169D01*
X477Y1169D02*
X545Y1169D01*
X177Y1168D02*
X245Y1168D01*
X477Y1168D02*
X545Y1168D01*
X177Y1167D02*
X245Y1167D01*
X477Y1167D02*
X545Y1167D01*
X177Y1166D02*
X245Y1166D01*
X477Y1166D02*
X545Y1166D01*
X177Y1165D02*
X245Y1165D01*
X477Y1165D02*
X545Y1165D01*
X177Y1164D02*
X245Y1164D01*
X477Y1164D02*
X545Y1164D01*
X177Y1163D02*
X245Y1163D01*
X477Y1163D02*
X545Y1163D01*
X177Y1162D02*
X245Y1162D01*
X477Y1162D02*
X545Y1162D01*
X177Y1030D02*
X245Y1030D01*
X477Y1030D02*
X545Y1030D01*
X177Y1029D02*
X245Y1029D01*
X477Y1029D02*
X545Y1029D01*
X177Y1028D02*
X245Y1028D01*
X477Y1028D02*
X545Y1028D01*
X177Y1027D02*
X245Y1027D01*
X477Y1027D02*
X545Y1027D01*
X177Y1026D02*
X245Y1026D01*
X477Y1026D02*
X545Y1026D01*
X177Y1025D02*
X245Y1025D01*
X477Y1025D02*
X545Y1025D01*
X177Y1024D02*
X245Y1024D01*
X477Y1024D02*
X545Y1024D01*
X177Y1023D02*
X245Y1023D01*
X477Y1023D02*
X545Y1023D01*
X177Y1022D02*
X245Y1022D01*
X477Y1022D02*
X545Y1022D01*
X177Y1021D02*
X245Y1021D01*
X477Y1021D02*
X545Y1021D01*
X177Y1020D02*
X245Y1020D01*
X477Y1020D02*
X545Y1020D01*
X177Y1019D02*
X245Y1019D01*
X477Y1019D02*
X545Y1019D01*
X177Y1018D02*
X245Y1018D01*
X477Y1018D02*
X545Y1018D01*
X177Y1017D02*
X245Y1017D01*
X477Y1017D02*
X545Y1017D01*
X177Y1016D02*
X245Y1016D01*
X477Y1016D02*
X545Y1016D01*
X177Y1015D02*
X245Y1015D01*
X477Y1015D02*
X545Y1015D01*
X177Y1014D02*
X245Y1014D01*
X477Y1014D02*
X545Y1014D01*
X177Y1013D02*
X245Y1013D01*
X477Y1013D02*
X545Y1013D01*
X177Y1012D02*
X245Y1012D01*
X477Y1012D02*
X545Y1012D01*
X177Y1011D02*
X245Y1011D01*
X477Y1011D02*
X545Y1011D01*
X177Y1010D02*
X207Y1010D01*
X215Y1010D02*
X245Y1010D01*
X477Y1010D02*
X507Y1010D01*
X515Y1010D02*
X545Y1010D01*
X177Y1009D02*
X204Y1009D01*
X218Y1009D02*
X245Y1009D01*
X477Y1009D02*
X504Y1009D01*
X518Y1009D02*
X545Y1009D01*
X177Y1008D02*
X203Y1008D01*
X220Y1008D02*
X245Y1008D01*
X477Y1008D02*
X502Y1008D01*
X520Y1008D02*
X545Y1008D01*
X177Y1007D02*
X201Y1007D01*
X221Y1007D02*
X245Y1007D01*
X477Y1007D02*
X501Y1007D01*
X521Y1007D02*
X545Y1007D01*
X177Y1006D02*
X200Y1006D01*
X222Y1006D02*
X245Y1006D01*
X477Y1006D02*
X500Y1006D01*
X522Y1006D02*
X545Y1006D01*
X177Y1005D02*
X199Y1005D01*
X223Y1005D02*
X245Y1005D01*
X477Y1005D02*
X499Y1005D01*
X523Y1005D02*
X545Y1005D01*
X177Y1004D02*
X199Y1004D01*
X224Y1004D02*
X245Y1004D01*
X477Y1004D02*
X498Y1004D01*
X524Y1004D02*
X545Y1004D01*
X177Y1003D02*
X198Y1003D01*
X225Y1003D02*
X245Y1003D01*
X477Y1003D02*
X498Y1003D01*
X524Y1003D02*
X545Y1003D01*
X177Y1002D02*
X197Y1002D01*
X225Y1002D02*
X245Y1002D01*
X477Y1002D02*
X497Y1002D01*
X525Y1002D02*
X545Y1002D01*
X177Y1001D02*
X197Y1001D01*
X225Y1001D02*
X245Y1001D01*
X477Y1001D02*
X497Y1001D01*
X525Y1001D02*
X545Y1001D01*
X177Y1000D02*
X197Y1000D01*
X226Y1000D02*
X245Y1000D01*
X477Y1000D02*
X497Y1000D01*
X526Y1000D02*
X545Y1000D01*
X177Y999D02*
X196Y999D01*
X226Y999D02*
X245Y999D01*
X477Y999D02*
X496Y999D01*
X526Y999D02*
X545Y999D01*
X177Y998D02*
X196Y998D01*
X226Y998D02*
X245Y998D01*
X477Y998D02*
X496Y998D01*
X526Y998D02*
X545Y998D01*
X177Y997D02*
X196Y997D01*
X226Y997D02*
X245Y997D01*
X477Y997D02*
X496Y997D01*
X526Y997D02*
X545Y997D01*
X177Y996D02*
X196Y996D01*
X226Y996D02*
X245Y996D01*
X477Y996D02*
X496Y996D01*
X526Y996D02*
X545Y996D01*
X177Y995D02*
X196Y995D01*
X226Y995D02*
X245Y995D01*
X477Y995D02*
X496Y995D01*
X526Y995D02*
X545Y995D01*
X177Y994D02*
X196Y994D01*
X226Y994D02*
X245Y994D01*
X477Y994D02*
X496Y994D01*
X526Y994D02*
X545Y994D01*
X177Y993D02*
X196Y993D01*
X226Y993D02*
X245Y993D01*
X477Y993D02*
X496Y993D01*
X526Y993D02*
X545Y993D01*
X177Y992D02*
X197Y992D01*
X226Y992D02*
X245Y992D01*
X477Y992D02*
X496Y992D01*
X526Y992D02*
X545Y992D01*
X177Y991D02*
X197Y991D01*
X226Y991D02*
X245Y991D01*
X477Y991D02*
X497Y991D01*
X526Y991D02*
X545Y991D01*
X177Y990D02*
X197Y990D01*
X225Y990D02*
X245Y990D01*
X477Y990D02*
X497Y990D01*
X525Y990D02*
X545Y990D01*
X177Y989D02*
X198Y989D01*
X225Y989D02*
X245Y989D01*
X477Y989D02*
X498Y989D01*
X525Y989D02*
X545Y989D01*
X177Y988D02*
X198Y988D01*
X224Y988D02*
X245Y988D01*
X477Y988D02*
X498Y988D01*
X524Y988D02*
X545Y988D01*
X177Y987D02*
X199Y987D01*
X223Y987D02*
X245Y987D01*
X477Y987D02*
X499Y987D01*
X523Y987D02*
X545Y987D01*
X177Y986D02*
X200Y986D01*
X223Y986D02*
X245Y986D01*
X477Y986D02*
X500Y986D01*
X523Y986D02*
X545Y986D01*
X177Y985D02*
X201Y985D01*
X222Y985D02*
X245Y985D01*
X477Y985D02*
X501Y985D01*
X522Y985D02*
X545Y985D01*
X177Y984D02*
X202Y984D01*
X220Y984D02*
X245Y984D01*
X477Y984D02*
X502Y984D01*
X520Y984D02*
X545Y984D01*
X177Y983D02*
X203Y983D01*
X219Y983D02*
X245Y983D01*
X477Y983D02*
X503Y983D01*
X519Y983D02*
X545Y983D01*
X177Y982D02*
X205Y982D01*
X217Y982D02*
X245Y982D01*
X477Y982D02*
X505Y982D01*
X517Y982D02*
X545Y982D01*
X177Y981D02*
X245Y981D01*
X477Y981D02*
X545Y981D01*
X177Y980D02*
X245Y980D01*
X477Y980D02*
X545Y980D01*
X177Y979D02*
X245Y979D01*
X477Y979D02*
X545Y979D01*
X177Y978D02*
X245Y978D01*
X477Y978D02*
X545Y978D01*
X177Y977D02*
X245Y977D01*
X477Y977D02*
X545Y977D01*
X177Y976D02*
X245Y976D01*
X477Y976D02*
X545Y976D01*
X177Y975D02*
X245Y975D01*
X477Y975D02*
X545Y975D01*
X177Y974D02*
X245Y974D01*
X477Y974D02*
X545Y974D01*
X177Y973D02*
X245Y973D01*
X477Y973D02*
X545Y973D01*
X177Y972D02*
X245Y972D01*
X477Y972D02*
X545Y972D01*
X177Y971D02*
X245Y971D01*
X477Y971D02*
X545Y971D01*
X177Y970D02*
X245Y970D01*
X477Y970D02*
X545Y970D01*
X177Y969D02*
X245Y969D01*
X477Y969D02*
X545Y969D01*
X177Y968D02*
X245Y968D01*
X477Y968D02*
X545Y968D01*
X177Y967D02*
X245Y967D01*
X477Y967D02*
X545Y967D01*
X177Y966D02*
X245Y966D01*
X477Y966D02*
X545Y966D01*
X177Y965D02*
X245Y965D01*
X477Y965D02*
X545Y965D01*
X177Y964D02*
X245Y964D01*
X477Y964D02*
X545Y964D01*
X177Y963D02*
X245Y963D01*
X477Y963D02*
X545Y963D01*
X177Y962D02*
X245Y962D01*
X477Y962D02*
X545Y962D01*
X135Y854D02*
X203Y854D01*
X525Y854D02*
X593Y854D01*
X135Y853D02*
X203Y853D01*
X524Y853D02*
X593Y853D01*
X135Y852D02*
X203Y852D01*
X524Y852D02*
X593Y852D01*
X135Y851D02*
X203Y851D01*
X524Y851D02*
X593Y851D01*
X135Y850D02*
X203Y850D01*
X524Y850D02*
X593Y850D01*
X135Y849D02*
X203Y849D01*
X524Y849D02*
X593Y849D01*
X135Y848D02*
X203Y848D01*
X524Y848D02*
X593Y848D01*
X135Y847D02*
X203Y847D01*
X524Y847D02*
X593Y847D01*
X135Y846D02*
X203Y846D01*
X524Y846D02*
X593Y846D01*
X135Y845D02*
X203Y845D01*
X524Y845D02*
X593Y845D01*
X135Y844D02*
X203Y844D01*
X524Y844D02*
X593Y844D01*
X135Y843D02*
X203Y843D01*
X524Y843D02*
X593Y843D01*
X135Y842D02*
X203Y842D01*
X524Y842D02*
X593Y842D01*
X135Y841D02*
X203Y841D01*
X524Y841D02*
X593Y841D01*
X135Y840D02*
X203Y840D01*
X524Y840D02*
X593Y840D01*
X135Y839D02*
X203Y839D01*
X524Y839D02*
X593Y839D01*
X135Y838D02*
X203Y838D01*
X524Y838D02*
X593Y838D01*
X135Y837D02*
X203Y837D01*
X524Y837D02*
X593Y837D01*
X135Y836D02*
X203Y836D01*
X524Y836D02*
X593Y836D01*
X135Y835D02*
X203Y835D01*
X524Y835D02*
X593Y835D01*
X135Y834D02*
X166Y834D01*
X172Y834D02*
X203Y834D01*
X524Y834D02*
X556Y834D01*
X561Y834D02*
X593Y834D01*
X135Y833D02*
X163Y833D01*
X175Y833D02*
X203Y833D01*
X524Y833D02*
X552Y833D01*
X565Y833D02*
X593Y833D01*
X135Y832D02*
X161Y832D01*
X177Y832D02*
X203Y832D01*
X524Y832D02*
X550Y832D01*
X567Y832D02*
X593Y832D01*
X135Y831D02*
X159Y831D01*
X179Y831D02*
X203Y831D01*
X524Y831D02*
X549Y831D01*
X568Y831D02*
X593Y831D01*
X135Y830D02*
X158Y830D01*
X180Y830D02*
X203Y830D01*
X524Y830D02*
X548Y830D01*
X569Y830D02*
X593Y830D01*
X135Y829D02*
X157Y829D01*
X181Y829D02*
X203Y829D01*
X524Y829D02*
X547Y829D01*
X570Y829D02*
X593Y829D01*
X135Y828D02*
X157Y828D01*
X181Y828D02*
X203Y828D01*
X524Y828D02*
X546Y828D01*
X571Y828D02*
X593Y828D01*
X135Y827D02*
X156Y827D01*
X182Y827D02*
X203Y827D01*
X524Y827D02*
X546Y827D01*
X572Y827D02*
X593Y827D01*
X135Y826D02*
X155Y826D01*
X183Y826D02*
X203Y826D01*
X524Y826D02*
X545Y826D01*
X572Y826D02*
X593Y826D01*
X135Y825D02*
X155Y825D01*
X183Y825D02*
X203Y825D01*
X524Y825D02*
X544Y825D01*
X573Y825D02*
X593Y825D01*
X135Y824D02*
X155Y824D01*
X184Y824D02*
X203Y824D01*
X524Y824D02*
X544Y824D01*
X573Y824D02*
X593Y824D01*
X135Y823D02*
X154Y823D01*
X184Y823D02*
X203Y823D01*
X524Y823D02*
X544Y823D01*
X573Y823D02*
X593Y823D01*
X135Y822D02*
X154Y822D01*
X184Y822D02*
X203Y822D01*
X524Y822D02*
X544Y822D01*
X574Y822D02*
X593Y822D01*
X135Y821D02*
X154Y821D01*
X184Y821D02*
X203Y821D01*
X524Y821D02*
X544Y821D01*
X574Y821D02*
X593Y821D01*
X135Y820D02*
X154Y820D01*
X184Y820D02*
X203Y820D01*
X524Y820D02*
X544Y820D01*
X574Y820D02*
X593Y820D01*
X135Y819D02*
X154Y819D01*
X184Y819D02*
X203Y819D01*
X524Y819D02*
X544Y819D01*
X574Y819D02*
X593Y819D01*
X135Y818D02*
X154Y818D01*
X184Y818D02*
X203Y818D01*
X524Y818D02*
X544Y818D01*
X574Y818D02*
X593Y818D01*
X135Y817D02*
X154Y817D01*
X184Y817D02*
X203Y817D01*
X524Y817D02*
X544Y817D01*
X574Y817D02*
X593Y817D01*
X135Y816D02*
X154Y816D01*
X184Y816D02*
X203Y816D01*
X524Y816D02*
X544Y816D01*
X573Y816D02*
X593Y816D01*
X135Y815D02*
X155Y815D01*
X184Y815D02*
X203Y815D01*
X524Y815D02*
X544Y815D01*
X573Y815D02*
X593Y815D01*
X135Y814D02*
X155Y814D01*
X183Y814D02*
X203Y814D01*
X524Y814D02*
X544Y814D01*
X573Y814D02*
X593Y814D01*
X135Y813D02*
X155Y813D01*
X183Y813D02*
X203Y813D01*
X524Y813D02*
X545Y813D01*
X572Y813D02*
X593Y813D01*
X135Y812D02*
X156Y812D01*
X182Y812D02*
X203Y812D01*
X524Y812D02*
X546Y812D01*
X572Y812D02*
X593Y812D01*
X135Y811D02*
X157Y811D01*
X181Y811D02*
X203Y811D01*
X524Y811D02*
X546Y811D01*
X571Y811D02*
X593Y811D01*
X135Y810D02*
X157Y810D01*
X181Y810D02*
X203Y810D01*
X524Y810D02*
X547Y810D01*
X570Y810D02*
X593Y810D01*
X135Y809D02*
X158Y809D01*
X180Y809D02*
X203Y809D01*
X524Y809D02*
X548Y809D01*
X569Y809D02*
X593Y809D01*
X135Y808D02*
X159Y808D01*
X179Y808D02*
X203Y808D01*
X524Y808D02*
X549Y808D01*
X568Y808D02*
X593Y808D01*
X135Y807D02*
X161Y807D01*
X177Y807D02*
X203Y807D01*
X524Y807D02*
X550Y807D01*
X567Y807D02*
X593Y807D01*
X135Y806D02*
X163Y806D01*
X175Y806D02*
X203Y806D01*
X524Y806D02*
X552Y806D01*
X565Y806D02*
X593Y806D01*
X135Y805D02*
X166Y805D01*
X172Y805D02*
X203Y805D01*
X524Y805D02*
X556Y805D01*
X561Y805D02*
X593Y805D01*
X135Y804D02*
X203Y804D01*
X524Y804D02*
X593Y804D01*
X135Y803D02*
X203Y803D01*
X524Y803D02*
X593Y803D01*
X135Y802D02*
X203Y802D01*
X524Y802D02*
X593Y802D01*
X135Y801D02*
X203Y801D01*
X524Y801D02*
X593Y801D01*
X135Y800D02*
X203Y800D01*
X524Y800D02*
X593Y800D01*
X135Y799D02*
X203Y799D01*
X524Y799D02*
X593Y799D01*
X135Y798D02*
X203Y798D01*
X524Y798D02*
X593Y798D01*
X135Y797D02*
X203Y797D01*
X524Y797D02*
X593Y797D01*
X135Y796D02*
X203Y796D01*
X524Y796D02*
X593Y796D01*
X135Y795D02*
X203Y795D01*
X524Y795D02*
X593Y795D01*
X135Y794D02*
X203Y794D01*
X524Y794D02*
X593Y794D01*
X135Y793D02*
X203Y793D01*
X524Y793D02*
X593Y793D01*
X135Y792D02*
X203Y792D01*
X524Y792D02*
X593Y792D01*
X135Y791D02*
X203Y791D01*
X524Y791D02*
X593Y791D01*
X135Y790D02*
X203Y790D01*
X524Y790D02*
X593Y790D01*
X135Y789D02*
X203Y789D01*
X524Y789D02*
X593Y789D01*
X135Y788D02*
X203Y788D01*
X524Y788D02*
X593Y788D01*
X135Y787D02*
X203Y787D01*
X524Y787D02*
X593Y787D01*
X135Y786D02*
X203Y786D01*
X524Y786D02*
X593Y786D01*
X135Y785D02*
X203Y785D01*
X525Y785D02*
X593Y785D01*
X135Y704D02*
X203Y704D01*
X524Y704D02*
X593Y704D01*
X135Y703D02*
X203Y703D01*
X524Y703D02*
X593Y703D01*
X135Y702D02*
X203Y702D01*
X524Y702D02*
X593Y702D01*
X135Y701D02*
X203Y701D01*
X524Y701D02*
X593Y701D01*
X135Y700D02*
X203Y700D01*
X524Y700D02*
X593Y700D01*
X135Y699D02*
X203Y699D01*
X524Y699D02*
X593Y699D01*
X135Y698D02*
X203Y698D01*
X524Y698D02*
X593Y698D01*
X135Y697D02*
X203Y697D01*
X524Y697D02*
X593Y697D01*
X135Y696D02*
X203Y696D01*
X524Y696D02*
X593Y696D01*
X135Y695D02*
X203Y695D01*
X524Y695D02*
X593Y695D01*
X135Y694D02*
X203Y694D01*
X524Y694D02*
X593Y694D01*
X135Y693D02*
X203Y693D01*
X524Y693D02*
X593Y693D01*
X135Y692D02*
X203Y692D01*
X524Y692D02*
X593Y692D01*
X135Y691D02*
X203Y691D01*
X524Y691D02*
X593Y691D01*
X135Y690D02*
X203Y690D01*
X524Y690D02*
X593Y690D01*
X135Y689D02*
X203Y689D01*
X524Y689D02*
X593Y689D01*
X135Y688D02*
X203Y688D01*
X524Y688D02*
X593Y688D01*
X135Y687D02*
X203Y687D01*
X524Y687D02*
X593Y687D01*
X135Y686D02*
X203Y686D01*
X524Y686D02*
X593Y686D01*
X135Y685D02*
X203Y685D01*
X524Y685D02*
X593Y685D01*
X135Y684D02*
X164Y684D01*
X174Y684D02*
X203Y684D01*
X524Y684D02*
X554Y684D01*
X563Y684D02*
X593Y684D01*
X135Y683D02*
X162Y683D01*
X176Y683D02*
X203Y683D01*
X524Y683D02*
X551Y683D01*
X566Y683D02*
X593Y683D01*
X135Y682D02*
X160Y682D01*
X178Y682D02*
X203Y682D01*
X524Y682D02*
X550Y682D01*
X568Y682D02*
X593Y682D01*
X135Y681D02*
X159Y681D01*
X179Y681D02*
X203Y681D01*
X524Y681D02*
X549Y681D01*
X569Y681D02*
X593Y681D01*
X135Y680D02*
X158Y680D01*
X180Y680D02*
X203Y680D01*
X524Y680D02*
X548Y680D01*
X570Y680D02*
X593Y680D01*
X135Y679D02*
X157Y679D01*
X181Y679D02*
X203Y679D01*
X524Y679D02*
X547Y679D01*
X571Y679D02*
X593Y679D01*
X135Y678D02*
X156Y678D01*
X182Y678D02*
X203Y678D01*
X524Y678D02*
X546Y678D01*
X571Y678D02*
X593Y678D01*
X135Y677D02*
X156Y677D01*
X182Y677D02*
X203Y677D01*
X524Y677D02*
X545Y677D01*
X572Y677D02*
X593Y677D01*
X135Y676D02*
X155Y676D01*
X183Y676D02*
X203Y676D01*
X524Y676D02*
X545Y676D01*
X573Y676D02*
X593Y676D01*
X135Y675D02*
X155Y675D01*
X183Y675D02*
X203Y675D01*
X524Y675D02*
X544Y675D01*
X573Y675D02*
X593Y675D01*
X135Y674D02*
X154Y674D01*
X184Y674D02*
X203Y674D01*
X524Y674D02*
X544Y674D01*
X573Y674D02*
X593Y674D01*
X135Y673D02*
X154Y673D01*
X184Y673D02*
X203Y673D01*
X524Y673D02*
X544Y673D01*
X574Y673D02*
X593Y673D01*
X135Y672D02*
X154Y672D01*
X184Y672D02*
X203Y672D01*
X524Y672D02*
X544Y672D01*
X574Y672D02*
X593Y672D01*
X135Y671D02*
X154Y671D01*
X184Y671D02*
X203Y671D01*
X524Y671D02*
X544Y671D01*
X574Y671D02*
X593Y671D01*
X135Y670D02*
X154Y670D01*
X184Y670D02*
X203Y670D01*
X524Y670D02*
X544Y670D01*
X574Y670D02*
X593Y670D01*
X135Y669D02*
X154Y669D01*
X184Y669D02*
X203Y669D01*
X524Y669D02*
X544Y669D01*
X574Y669D02*
X593Y669D01*
X135Y668D02*
X154Y668D01*
X184Y668D02*
X203Y668D01*
X524Y668D02*
X544Y668D01*
X574Y668D02*
X593Y668D01*
X135Y667D02*
X154Y667D01*
X184Y667D02*
X203Y667D01*
X524Y667D02*
X544Y667D01*
X574Y667D02*
X593Y667D01*
X135Y666D02*
X154Y666D01*
X184Y666D02*
X203Y666D01*
X524Y666D02*
X544Y666D01*
X573Y666D02*
X593Y666D01*
X135Y665D02*
X155Y665D01*
X183Y665D02*
X203Y665D01*
X524Y665D02*
X544Y665D01*
X573Y665D02*
X593Y665D01*
X135Y664D02*
X155Y664D01*
X183Y664D02*
X203Y664D01*
X524Y664D02*
X545Y664D01*
X573Y664D02*
X593Y664D01*
X135Y663D02*
X156Y663D01*
X182Y663D02*
X203Y663D01*
X524Y663D02*
X545Y663D01*
X572Y663D02*
X593Y663D01*
X135Y662D02*
X156Y662D01*
X182Y662D02*
X203Y662D01*
X524Y662D02*
X546Y662D01*
X572Y662D02*
X593Y662D01*
X135Y661D02*
X157Y661D01*
X181Y661D02*
X203Y661D01*
X524Y661D02*
X547Y661D01*
X571Y661D02*
X593Y661D01*
X135Y660D02*
X158Y660D01*
X180Y660D02*
X203Y660D01*
X524Y660D02*
X547Y660D01*
X570Y660D02*
X593Y660D01*
X135Y659D02*
X159Y659D01*
X179Y659D02*
X203Y659D01*
X524Y659D02*
X548Y659D01*
X569Y659D02*
X593Y659D01*
X135Y658D02*
X160Y658D01*
X178Y658D02*
X203Y658D01*
X524Y658D02*
X550Y658D01*
X568Y658D02*
X593Y658D01*
X135Y657D02*
X162Y657D01*
X176Y657D02*
X203Y657D01*
X524Y657D02*
X551Y657D01*
X566Y657D02*
X593Y657D01*
X135Y656D02*
X164Y656D01*
X174Y656D02*
X203Y656D01*
X524Y656D02*
X554Y656D01*
X564Y656D02*
X593Y656D01*
X135Y655D02*
X203Y655D01*
X524Y655D02*
X593Y655D01*
X135Y654D02*
X203Y654D01*
X524Y654D02*
X593Y654D01*
X135Y653D02*
X203Y653D01*
X524Y653D02*
X593Y653D01*
X135Y652D02*
X203Y652D01*
X524Y652D02*
X593Y652D01*
X135Y651D02*
X203Y651D01*
X524Y651D02*
X593Y651D01*
X135Y650D02*
X203Y650D01*
X524Y650D02*
X593Y650D01*
X135Y649D02*
X203Y649D01*
X524Y649D02*
X593Y649D01*
X135Y648D02*
X203Y648D01*
X524Y648D02*
X593Y648D01*
X135Y647D02*
X203Y647D01*
X524Y647D02*
X593Y647D01*
X135Y646D02*
X203Y646D01*
X524Y646D02*
X593Y646D01*
X135Y645D02*
X203Y645D01*
X524Y645D02*
X593Y645D01*
X135Y644D02*
X203Y644D01*
X524Y644D02*
X593Y644D01*
X135Y643D02*
X203Y643D01*
X524Y643D02*
X593Y643D01*
X135Y642D02*
X203Y642D01*
X524Y642D02*
X593Y642D01*
X135Y641D02*
X203Y641D01*
X524Y641D02*
X593Y641D01*
X135Y640D02*
X203Y640D01*
X524Y640D02*
X593Y640D01*
X135Y639D02*
X203Y639D01*
X524Y639D02*
X593Y639D01*
X135Y638D02*
X203Y638D01*
X524Y638D02*
X593Y638D01*
X135Y637D02*
X203Y637D01*
X524Y637D02*
X593Y637D01*
X135Y636D02*
X203Y636D01*
X524Y636D02*
X593Y636D01*
X135Y604D02*
X203Y604D01*
X524Y604D02*
X593Y604D01*
X135Y603D02*
X203Y603D01*
X524Y603D02*
X593Y603D01*
X135Y602D02*
X203Y602D01*
X524Y602D02*
X593Y602D01*
X135Y601D02*
X203Y601D01*
X524Y601D02*
X593Y601D01*
X135Y600D02*
X203Y600D01*
X524Y600D02*
X593Y600D01*
X135Y599D02*
X203Y599D01*
X524Y599D02*
X593Y599D01*
X135Y598D02*
X203Y598D01*
X524Y598D02*
X593Y598D01*
X135Y597D02*
X203Y597D01*
X524Y597D02*
X593Y597D01*
X135Y596D02*
X203Y596D01*
X524Y596D02*
X593Y596D01*
X135Y595D02*
X203Y595D01*
X524Y595D02*
X593Y595D01*
X135Y594D02*
X203Y594D01*
X524Y594D02*
X593Y594D01*
X135Y593D02*
X203Y593D01*
X524Y593D02*
X593Y593D01*
X135Y592D02*
X203Y592D01*
X524Y592D02*
X593Y592D01*
X135Y591D02*
X203Y591D01*
X524Y591D02*
X593Y591D01*
X135Y590D02*
X203Y590D01*
X524Y590D02*
X593Y590D01*
X135Y589D02*
X203Y589D01*
X524Y589D02*
X593Y589D01*
X135Y588D02*
X203Y588D01*
X524Y588D02*
X593Y588D01*
X135Y587D02*
X203Y587D01*
X524Y587D02*
X593Y587D01*
X135Y586D02*
X203Y586D01*
X524Y586D02*
X593Y586D01*
X135Y585D02*
X203Y585D01*
X524Y585D02*
X593Y585D01*
X135Y584D02*
X164Y584D01*
X174Y584D02*
X203Y584D01*
X524Y584D02*
X553Y584D01*
X564Y584D02*
X593Y584D01*
X135Y583D02*
X161Y583D01*
X177Y583D02*
X203Y583D01*
X524Y583D02*
X551Y583D01*
X566Y583D02*
X593Y583D01*
X135Y582D02*
X160Y582D01*
X178Y582D02*
X203Y582D01*
X524Y582D02*
X550Y582D01*
X568Y582D02*
X593Y582D01*
X135Y581D02*
X159Y581D01*
X179Y581D02*
X203Y581D01*
X524Y581D02*
X548Y581D01*
X569Y581D02*
X593Y581D01*
X135Y580D02*
X158Y580D01*
X180Y580D02*
X203Y580D01*
X524Y580D02*
X547Y580D01*
X570Y580D02*
X593Y580D01*
X135Y579D02*
X157Y579D01*
X181Y579D02*
X203Y579D01*
X524Y579D02*
X546Y579D01*
X571Y579D02*
X593Y579D01*
X135Y578D02*
X156Y578D01*
X182Y578D02*
X203Y578D01*
X524Y578D02*
X546Y578D01*
X572Y578D02*
X593Y578D01*
X135Y577D02*
X156Y577D01*
X183Y577D02*
X203Y577D01*
X524Y577D02*
X545Y577D01*
X572Y577D02*
X593Y577D01*
X135Y576D02*
X155Y576D01*
X183Y576D02*
X203Y576D01*
X524Y576D02*
X545Y576D01*
X573Y576D02*
X593Y576D01*
X135Y575D02*
X155Y575D01*
X183Y575D02*
X203Y575D01*
X524Y575D02*
X544Y575D01*
X573Y575D02*
X593Y575D01*
X135Y574D02*
X154Y574D01*
X184Y574D02*
X203Y574D01*
X524Y574D02*
X544Y574D01*
X573Y574D02*
X593Y574D01*
X135Y573D02*
X154Y573D01*
X184Y573D02*
X203Y573D01*
X524Y573D02*
X544Y573D01*
X574Y573D02*
X593Y573D01*
X135Y572D02*
X154Y572D01*
X184Y572D02*
X203Y572D01*
X524Y572D02*
X544Y572D01*
X574Y572D02*
X593Y572D01*
X135Y571D02*
X154Y571D01*
X184Y571D02*
X203Y571D01*
X524Y571D02*
X544Y571D01*
X574Y571D02*
X593Y571D01*
X135Y570D02*
X154Y570D01*
X184Y570D02*
X203Y570D01*
X524Y570D02*
X544Y570D01*
X574Y570D02*
X593Y570D01*
X135Y569D02*
X154Y569D01*
X184Y569D02*
X203Y569D01*
X524Y569D02*
X544Y569D01*
X574Y569D02*
X593Y569D01*
X135Y568D02*
X154Y568D01*
X184Y568D02*
X203Y568D01*
X524Y568D02*
X544Y568D01*
X574Y568D02*
X593Y568D01*
X135Y567D02*
X154Y567D01*
X184Y567D02*
X203Y567D01*
X524Y567D02*
X544Y567D01*
X574Y567D02*
X593Y567D01*
X135Y566D02*
X154Y566D01*
X184Y566D02*
X203Y566D01*
X524Y566D02*
X544Y566D01*
X573Y566D02*
X593Y566D01*
X135Y565D02*
X155Y565D01*
X183Y565D02*
X203Y565D01*
X524Y565D02*
X544Y565D01*
X573Y565D02*
X593Y565D01*
X135Y564D02*
X155Y564D01*
X183Y564D02*
X203Y564D01*
X524Y564D02*
X545Y564D01*
X573Y564D02*
X593Y564D01*
X135Y563D02*
X156Y563D01*
X182Y563D02*
X203Y563D01*
X524Y563D02*
X545Y563D01*
X572Y563D02*
X593Y563D01*
X135Y562D02*
X156Y562D01*
X182Y562D02*
X203Y562D01*
X524Y562D02*
X546Y562D01*
X571Y562D02*
X593Y562D01*
X135Y561D02*
X157Y561D01*
X181Y561D02*
X203Y561D01*
X524Y561D02*
X547Y561D01*
X571Y561D02*
X593Y561D01*
X135Y560D02*
X158Y560D01*
X180Y560D02*
X203Y560D01*
X524Y560D02*
X548Y560D01*
X570Y560D02*
X593Y560D01*
X135Y559D02*
X159Y559D01*
X179Y559D02*
X203Y559D01*
X524Y559D02*
X549Y559D01*
X569Y559D02*
X593Y559D01*
X135Y558D02*
X160Y558D01*
X178Y558D02*
X203Y558D01*
X524Y558D02*
X550Y558D01*
X567Y558D02*
X593Y558D01*
X135Y557D02*
X162Y557D01*
X176Y557D02*
X203Y557D01*
X524Y557D02*
X552Y557D01*
X566Y557D02*
X593Y557D01*
X135Y556D02*
X165Y556D01*
X174Y556D02*
X203Y556D01*
X524Y556D02*
X554Y556D01*
X563Y556D02*
X593Y556D01*
X135Y555D02*
X203Y555D01*
X524Y555D02*
X593Y555D01*
X135Y554D02*
X203Y554D01*
X524Y554D02*
X593Y554D01*
X135Y553D02*
X203Y553D01*
X524Y553D02*
X593Y553D01*
X135Y552D02*
X203Y552D01*
X524Y552D02*
X593Y552D01*
X135Y551D02*
X203Y551D01*
X524Y551D02*
X593Y551D01*
X135Y550D02*
X203Y550D01*
X524Y550D02*
X593Y550D01*
X135Y549D02*
X203Y549D01*
X524Y549D02*
X593Y549D01*
X135Y548D02*
X203Y548D01*
X524Y548D02*
X593Y548D01*
X135Y547D02*
X203Y547D01*
X524Y547D02*
X593Y547D01*
X135Y546D02*
X203Y546D01*
X524Y546D02*
X593Y546D01*
X135Y545D02*
X203Y545D01*
X524Y545D02*
X593Y545D01*
X135Y544D02*
X203Y544D01*
X524Y544D02*
X593Y544D01*
X135Y543D02*
X203Y543D01*
X524Y543D02*
X593Y543D01*
X135Y542D02*
X203Y542D01*
X524Y542D02*
X593Y542D01*
X135Y541D02*
X203Y541D01*
X524Y541D02*
X593Y541D01*
X135Y540D02*
X203Y540D01*
X524Y540D02*
X593Y540D01*
X135Y539D02*
X203Y539D01*
X524Y539D02*
X593Y539D01*
X135Y538D02*
X203Y538D01*
X524Y538D02*
X593Y538D01*
X135Y537D02*
X203Y537D01*
X524Y537D02*
X593Y537D01*
X135Y536D02*
X203Y536D01*
X524Y536D02*
X593Y536D01*
X188Y408D02*
X256Y408D01*
X488Y408D02*
X556Y408D01*
X188Y407D02*
X256Y407D01*
X488Y407D02*
X556Y407D01*
X188Y406D02*
X256Y406D01*
X488Y406D02*
X556Y406D01*
X188Y405D02*
X256Y405D01*
X488Y405D02*
X556Y405D01*
X188Y404D02*
X256Y404D01*
X488Y404D02*
X556Y404D01*
X188Y403D02*
X256Y403D01*
X488Y403D02*
X556Y403D01*
X188Y402D02*
X256Y402D01*
X488Y402D02*
X556Y402D01*
X188Y401D02*
X256Y401D01*
X488Y401D02*
X556Y401D01*
X188Y400D02*
X256Y400D01*
X488Y400D02*
X556Y400D01*
X188Y399D02*
X256Y399D01*
X488Y399D02*
X556Y399D01*
X188Y398D02*
X256Y398D01*
X488Y398D02*
X556Y398D01*
X188Y397D02*
X256Y397D01*
X488Y397D02*
X556Y397D01*
X188Y396D02*
X256Y396D01*
X488Y396D02*
X556Y396D01*
X188Y395D02*
X256Y395D01*
X488Y395D02*
X556Y395D01*
X188Y394D02*
X256Y394D01*
X488Y394D02*
X556Y394D01*
X188Y393D02*
X256Y393D01*
X488Y393D02*
X556Y393D01*
X188Y392D02*
X256Y392D01*
X488Y392D02*
X556Y392D01*
X188Y391D02*
X256Y391D01*
X488Y391D02*
X556Y391D01*
X188Y390D02*
X256Y390D01*
X488Y390D02*
X556Y390D01*
X188Y389D02*
X256Y389D01*
X488Y389D02*
X556Y389D01*
X188Y388D02*
X220Y388D01*
X224Y388D02*
X256Y388D01*
X488Y388D02*
X520Y388D01*
X524Y388D02*
X556Y388D01*
X188Y387D02*
X216Y387D01*
X229Y387D02*
X256Y387D01*
X488Y387D02*
X516Y387D01*
X528Y387D02*
X556Y387D01*
X188Y386D02*
X214Y386D01*
X230Y386D02*
X256Y386D01*
X488Y386D02*
X514Y386D01*
X530Y386D02*
X556Y386D01*
X188Y385D02*
X213Y385D01*
X232Y385D02*
X256Y385D01*
X488Y385D02*
X513Y385D01*
X532Y385D02*
X556Y385D01*
X188Y384D02*
X212Y384D01*
X233Y384D02*
X256Y384D01*
X488Y384D02*
X512Y384D01*
X533Y384D02*
X556Y384D01*
X188Y383D02*
X211Y383D01*
X234Y383D02*
X256Y383D01*
X488Y383D02*
X511Y383D01*
X534Y383D02*
X556Y383D01*
X188Y382D02*
X210Y382D01*
X235Y382D02*
X256Y382D01*
X488Y382D02*
X510Y382D01*
X535Y382D02*
X556Y382D01*
X188Y381D02*
X209Y381D01*
X235Y381D02*
X256Y381D01*
X488Y381D02*
X509Y381D01*
X535Y381D02*
X556Y381D01*
X188Y380D02*
X209Y380D01*
X236Y380D02*
X256Y380D01*
X488Y380D02*
X508Y380D01*
X536Y380D02*
X556Y380D01*
X188Y379D02*
X208Y379D01*
X236Y379D02*
X256Y379D01*
X488Y379D02*
X508Y379D01*
X536Y379D02*
X556Y379D01*
X188Y378D02*
X208Y378D01*
X237Y378D02*
X256Y378D01*
X488Y378D02*
X508Y378D01*
X537Y378D02*
X556Y378D01*
X188Y377D02*
X207Y377D01*
X237Y377D02*
X256Y377D01*
X488Y377D02*
X507Y377D01*
X537Y377D02*
X556Y377D01*
X188Y376D02*
X207Y376D01*
X237Y376D02*
X256Y376D01*
X488Y376D02*
X507Y376D01*
X537Y376D02*
X556Y376D01*
X188Y375D02*
X207Y375D01*
X237Y375D02*
X256Y375D01*
X488Y375D02*
X507Y375D01*
X537Y375D02*
X556Y375D01*
X188Y374D02*
X207Y374D01*
X237Y374D02*
X256Y374D01*
X488Y374D02*
X507Y374D01*
X537Y374D02*
X556Y374D01*
X188Y373D02*
X207Y373D01*
X237Y373D02*
X256Y373D01*
X488Y373D02*
X507Y373D01*
X537Y373D02*
X556Y373D01*
X188Y372D02*
X207Y372D01*
X237Y372D02*
X256Y372D01*
X488Y372D02*
X507Y372D01*
X537Y372D02*
X556Y372D01*
X188Y371D02*
X207Y371D01*
X237Y371D02*
X256Y371D01*
X488Y371D02*
X507Y371D01*
X537Y371D02*
X556Y371D01*
X188Y370D02*
X207Y370D01*
X237Y370D02*
X256Y370D01*
X488Y370D02*
X507Y370D01*
X537Y370D02*
X556Y370D01*
X188Y369D02*
X208Y369D01*
X237Y369D02*
X256Y369D01*
X488Y369D02*
X508Y369D01*
X537Y369D02*
X556Y369D01*
X188Y368D02*
X208Y368D01*
X236Y368D02*
X256Y368D01*
X488Y368D02*
X508Y368D01*
X536Y368D02*
X556Y368D01*
X188Y367D02*
X209Y367D01*
X236Y367D02*
X256Y367D01*
X488Y367D02*
X508Y367D01*
X536Y367D02*
X556Y367D01*
X188Y366D02*
X209Y366D01*
X235Y366D02*
X256Y366D01*
X488Y366D02*
X509Y366D01*
X535Y366D02*
X556Y366D01*
X188Y365D02*
X210Y365D01*
X235Y365D02*
X256Y365D01*
X488Y365D02*
X510Y365D01*
X535Y365D02*
X556Y365D01*
X188Y364D02*
X211Y364D01*
X234Y364D02*
X256Y364D01*
X488Y364D02*
X510Y364D01*
X534Y364D02*
X556Y364D01*
X188Y363D02*
X211Y363D01*
X233Y363D02*
X256Y363D01*
X488Y363D02*
X511Y363D01*
X533Y363D02*
X556Y363D01*
X188Y362D02*
X213Y362D01*
X232Y362D02*
X256Y362D01*
X488Y362D02*
X513Y362D01*
X532Y362D02*
X556Y362D01*
X188Y361D02*
X214Y361D01*
X231Y361D02*
X256Y361D01*
X488Y361D02*
X514Y361D01*
X530Y361D02*
X556Y361D01*
X188Y360D02*
X216Y360D01*
X229Y360D02*
X256Y360D01*
X488Y360D02*
X516Y360D01*
X529Y360D02*
X556Y360D01*
X188Y359D02*
X219Y359D01*
X225Y359D02*
X256Y359D01*
X488Y359D02*
X519Y359D01*
X525Y359D02*
X556Y359D01*
X188Y358D02*
X256Y358D01*
X488Y358D02*
X556Y358D01*
X188Y357D02*
X256Y357D01*
X488Y357D02*
X556Y357D01*
X188Y356D02*
X256Y356D01*
X488Y356D02*
X556Y356D01*
X188Y355D02*
X256Y355D01*
X488Y355D02*
X556Y355D01*
X188Y354D02*
X256Y354D01*
X488Y354D02*
X556Y354D01*
X188Y353D02*
X256Y353D01*
X488Y353D02*
X556Y353D01*
X188Y352D02*
X256Y352D01*
X488Y352D02*
X556Y352D01*
X188Y351D02*
X256Y351D01*
X488Y351D02*
X556Y351D01*
X188Y350D02*
X256Y350D01*
X488Y350D02*
X556Y350D01*
X188Y349D02*
X256Y349D01*
X488Y349D02*
X556Y349D01*
X188Y348D02*
X256Y348D01*
X488Y348D02*
X556Y348D01*
X188Y347D02*
X256Y347D01*
X488Y347D02*
X556Y347D01*
X188Y346D02*
X256Y346D01*
X488Y346D02*
X556Y346D01*
X188Y345D02*
X256Y345D01*
X488Y345D02*
X556Y345D01*
X188Y344D02*
X256Y344D01*
X488Y344D02*
X556Y344D01*
X188Y343D02*
X256Y343D01*
X488Y343D02*
X556Y343D01*
X188Y342D02*
X256Y342D01*
X488Y342D02*
X556Y342D01*
X188Y341D02*
X256Y341D01*
X488Y341D02*
X556Y341D01*
X188Y340D02*
X256Y340D01*
X488Y340D02*
X556Y340D01*
X188Y339D02*
X256Y339D01*
X488Y339D02*
X556Y339D01*
X188Y208D02*
X256Y208D01*
X488Y208D02*
X556Y208D01*
X188Y207D02*
X256Y207D01*
X488Y207D02*
X556Y207D01*
X188Y206D02*
X256Y206D01*
X488Y206D02*
X556Y206D01*
X188Y205D02*
X256Y205D01*
X488Y205D02*
X556Y205D01*
X188Y204D02*
X256Y204D01*
X488Y204D02*
X556Y204D01*
X188Y203D02*
X256Y203D01*
X488Y203D02*
X556Y203D01*
X188Y202D02*
X256Y202D01*
X488Y202D02*
X556Y202D01*
X188Y201D02*
X256Y201D01*
X488Y201D02*
X556Y201D01*
X188Y200D02*
X256Y200D01*
X488Y200D02*
X556Y200D01*
X188Y199D02*
X256Y199D01*
X488Y199D02*
X556Y199D01*
X188Y198D02*
X256Y198D01*
X488Y198D02*
X556Y198D01*
X188Y197D02*
X256Y197D01*
X488Y197D02*
X556Y197D01*
X188Y196D02*
X256Y196D01*
X488Y196D02*
X556Y196D01*
X188Y195D02*
X256Y195D01*
X488Y195D02*
X556Y195D01*
X188Y194D02*
X256Y194D01*
X488Y194D02*
X556Y194D01*
X188Y193D02*
X256Y193D01*
X488Y193D02*
X556Y193D01*
X188Y192D02*
X256Y192D01*
X488Y192D02*
X556Y192D01*
X188Y191D02*
X256Y191D01*
X488Y191D02*
X556Y191D01*
X188Y190D02*
X256Y190D01*
X488Y190D02*
X556Y190D01*
X188Y189D02*
X256Y189D01*
X488Y189D02*
X556Y189D01*
X188Y188D02*
X220Y188D01*
X224Y188D02*
X256Y188D01*
X488Y188D02*
X520Y188D01*
X524Y188D02*
X556Y188D01*
X188Y187D02*
X216Y187D01*
X229Y187D02*
X256Y187D01*
X488Y187D02*
X516Y187D01*
X528Y187D02*
X556Y187D01*
X188Y186D02*
X214Y186D01*
X230Y186D02*
X256Y186D01*
X488Y186D02*
X514Y186D01*
X530Y186D02*
X556Y186D01*
X188Y185D02*
X213Y185D01*
X232Y185D02*
X256Y185D01*
X488Y185D02*
X513Y185D01*
X532Y185D02*
X556Y185D01*
X188Y184D02*
X212Y184D01*
X233Y184D02*
X256Y184D01*
X488Y184D02*
X512Y184D01*
X533Y184D02*
X556Y184D01*
X188Y183D02*
X211Y183D01*
X234Y183D02*
X256Y183D01*
X488Y183D02*
X511Y183D01*
X534Y183D02*
X556Y183D01*
X188Y182D02*
X210Y182D01*
X235Y182D02*
X256Y182D01*
X488Y182D02*
X510Y182D01*
X535Y182D02*
X556Y182D01*
X188Y181D02*
X209Y181D01*
X235Y181D02*
X256Y181D01*
X488Y181D02*
X509Y181D01*
X535Y181D02*
X556Y181D01*
X188Y180D02*
X209Y180D01*
X236Y180D02*
X256Y180D01*
X488Y180D02*
X508Y180D01*
X536Y180D02*
X556Y180D01*
X188Y179D02*
X208Y179D01*
X236Y179D02*
X256Y179D01*
X488Y179D02*
X508Y179D01*
X536Y179D02*
X556Y179D01*
X188Y178D02*
X208Y178D01*
X237Y178D02*
X256Y178D01*
X488Y178D02*
X508Y178D01*
X537Y178D02*
X556Y178D01*
X188Y177D02*
X207Y177D01*
X237Y177D02*
X256Y177D01*
X488Y177D02*
X507Y177D01*
X537Y177D02*
X556Y177D01*
X188Y176D02*
X207Y176D01*
X237Y176D02*
X256Y176D01*
X488Y176D02*
X507Y176D01*
X537Y176D02*
X556Y176D01*
X188Y175D02*
X207Y175D01*
X237Y175D02*
X256Y175D01*
X488Y175D02*
X507Y175D01*
X537Y175D02*
X556Y175D01*
X188Y174D02*
X207Y174D01*
X237Y174D02*
X256Y174D01*
X488Y174D02*
X507Y174D01*
X537Y174D02*
X556Y174D01*
X188Y173D02*
X207Y173D01*
X237Y173D02*
X256Y173D01*
X488Y173D02*
X507Y173D01*
X537Y173D02*
X556Y173D01*
X188Y172D02*
X207Y172D01*
X237Y172D02*
X256Y172D01*
X488Y172D02*
X507Y172D01*
X537Y172D02*
X556Y172D01*
X188Y171D02*
X207Y171D01*
X237Y171D02*
X256Y171D01*
X488Y171D02*
X507Y171D01*
X537Y171D02*
X556Y171D01*
X188Y170D02*
X207Y170D01*
X237Y170D02*
X256Y170D01*
X488Y170D02*
X507Y170D01*
X537Y170D02*
X556Y170D01*
X188Y169D02*
X208Y169D01*
X237Y169D02*
X256Y169D01*
X488Y169D02*
X508Y169D01*
X537Y169D02*
X556Y169D01*
X188Y168D02*
X208Y168D01*
X236Y168D02*
X256Y168D01*
X488Y168D02*
X508Y168D01*
X536Y168D02*
X556Y168D01*
X188Y167D02*
X209Y167D01*
X236Y167D02*
X256Y167D01*
X488Y167D02*
X508Y167D01*
X536Y167D02*
X556Y167D01*
X188Y166D02*
X209Y166D01*
X235Y166D02*
X256Y166D01*
X488Y166D02*
X509Y166D01*
X535Y166D02*
X556Y166D01*
X188Y165D02*
X210Y165D01*
X235Y165D02*
X256Y165D01*
X488Y165D02*
X510Y165D01*
X535Y165D02*
X556Y165D01*
X188Y164D02*
X211Y164D01*
X234Y164D02*
X256Y164D01*
X488Y164D02*
X510Y164D01*
X534Y164D02*
X556Y164D01*
X188Y163D02*
X211Y163D01*
X233Y163D02*
X256Y163D01*
X488Y163D02*
X511Y163D01*
X533Y163D02*
X556Y163D01*
X188Y162D02*
X213Y162D01*
X232Y162D02*
X256Y162D01*
X488Y162D02*
X513Y162D01*
X532Y162D02*
X556Y162D01*
X188Y161D02*
X214Y161D01*
X231Y161D02*
X256Y161D01*
X488Y161D02*
X514Y161D01*
X530Y161D02*
X556Y161D01*
X188Y160D02*
X216Y160D01*
X229Y160D02*
X256Y160D01*
X488Y160D02*
X516Y160D01*
X529Y160D02*
X556Y160D01*
X188Y159D02*
X219Y159D01*
X225Y159D02*
X256Y159D01*
X488Y159D02*
X519Y159D01*
X525Y159D02*
X556Y159D01*
X188Y158D02*
X256Y158D01*
X488Y158D02*
X556Y158D01*
X188Y157D02*
X256Y157D01*
X488Y157D02*
X556Y157D01*
X188Y156D02*
X256Y156D01*
X488Y156D02*
X556Y156D01*
X188Y155D02*
X256Y155D01*
X488Y155D02*
X556Y155D01*
X188Y154D02*
X256Y154D01*
X488Y154D02*
X556Y154D01*
X188Y153D02*
X256Y153D01*
X488Y153D02*
X556Y153D01*
X188Y152D02*
X256Y152D01*
X488Y152D02*
X556Y152D01*
X188Y151D02*
X256Y151D01*
X488Y151D02*
X556Y151D01*
X188Y150D02*
X256Y150D01*
X488Y150D02*
X556Y150D01*
X188Y149D02*
X256Y149D01*
X488Y149D02*
X556Y149D01*
X188Y148D02*
X256Y148D01*
X488Y148D02*
X556Y148D01*
X188Y147D02*
X256Y147D01*
X488Y147D02*
X556Y147D01*
X188Y146D02*
X256Y146D01*
X488Y146D02*
X556Y146D01*
X188Y145D02*
X256Y145D01*
X488Y145D02*
X556Y145D01*
X188Y144D02*
X256Y144D01*
X488Y144D02*
X556Y144D01*
X188Y143D02*
X256Y143D01*
X488Y143D02*
X556Y143D01*
X188Y142D02*
X256Y142D01*
X488Y142D02*
X556Y142D01*
X188Y141D02*
X256Y141D01*
X488Y141D02*
X556Y141D01*
X188Y140D02*
X256Y140D01*
X488Y140D02*
X556Y140D01*
X188Y139D02*
X256Y139D01*
X488Y139D02*
X556Y139D01*
D02*
G04 End of Mask0*
M02*