G04 MADE WITH FRITZING*
G04 WWW.FRITZING.ORG*
G04 DOUBLE SIDED*
G04 HOLES PLATED*
G04 CONTOUR ON CENTER OF CONTOUR VECTOR*
%ASAXBY*%
%FSLAX23Y23*%
%MOIN*%
%OFA0B0*%
%SFA1.0B1.0*%
%ADD10C,0.059370*%
%ADD11C,0.074000*%
%ADD12R,0.074000X0.074000*%
%ADD13C,0.024000*%
%ADD14R,0.001000X0.001000*%
%LNCOPPER0*%
G90*
G70*
G54D10*
X169Y570D03*
X169Y669D03*
X169Y819D03*
X558Y819D03*
X558Y669D03*
X558Y570D03*
G54D11*
X63Y1165D03*
X63Y1065D03*
X63Y965D03*
X63Y865D03*
X63Y765D03*
X63Y665D03*
X63Y565D03*
X63Y465D03*
X63Y365D03*
X63Y265D03*
X63Y165D03*
X63Y65D03*
X663Y65D03*
X663Y165D03*
X663Y265D03*
X663Y365D03*
X663Y465D03*
X663Y565D03*
X663Y665D03*
X663Y765D03*
X663Y865D03*
X663Y965D03*
X663Y1065D03*
X663Y1165D03*
X63Y1165D03*
X63Y1065D03*
X63Y965D03*
X63Y865D03*
X63Y765D03*
X63Y665D03*
X63Y565D03*
X63Y465D03*
X63Y365D03*
X63Y265D03*
X63Y165D03*
X63Y65D03*
X663Y65D03*
X663Y165D03*
X663Y265D03*
X663Y365D03*
X663Y465D03*
X663Y565D03*
X663Y665D03*
X663Y765D03*
X663Y865D03*
X663Y965D03*
X663Y1065D03*
X663Y1165D03*
G54D10*
X222Y373D03*
X522Y373D03*
X222Y173D03*
X522Y173D03*
X211Y1195D03*
X511Y1195D03*
X211Y995D03*
X511Y995D03*
G54D12*
X663Y1165D03*
X663Y1165D03*
G54D13*
X242Y854D02*
X240Y514D01*
D02*
X240Y514D02*
X79Y377D01*
D02*
X215Y976D02*
X242Y854D01*
D02*
X205Y183D02*
X81Y255D01*
D02*
X196Y1182D02*
X78Y1078D01*
D02*
X375Y373D02*
X377Y900D01*
D02*
X377Y900D02*
X644Y960D01*
D02*
X502Y373D02*
X375Y373D01*
D02*
X488Y570D02*
X488Y874D01*
D02*
X535Y570D02*
X488Y570D01*
D02*
X603Y874D02*
X644Y868D01*
D02*
X488Y874D02*
X603Y874D01*
G54D14*
X182Y1225D02*
X240Y1225D01*
X482Y1225D02*
X540Y1225D01*
X182Y1224D02*
X240Y1224D01*
X482Y1224D02*
X540Y1224D01*
X182Y1223D02*
X240Y1223D01*
X482Y1223D02*
X540Y1223D01*
X182Y1222D02*
X240Y1222D01*
X482Y1222D02*
X540Y1222D01*
X182Y1221D02*
X240Y1221D01*
X482Y1221D02*
X540Y1221D01*
X182Y1220D02*
X240Y1220D01*
X482Y1220D02*
X540Y1220D01*
X182Y1219D02*
X240Y1219D01*
X482Y1219D02*
X540Y1219D01*
X182Y1218D02*
X240Y1218D01*
X482Y1218D02*
X540Y1218D01*
X182Y1217D02*
X240Y1217D01*
X482Y1217D02*
X540Y1217D01*
X182Y1216D02*
X240Y1216D01*
X482Y1216D02*
X540Y1216D01*
X182Y1215D02*
X207Y1215D01*
X216Y1215D02*
X240Y1215D01*
X482Y1215D02*
X507Y1215D01*
X516Y1215D02*
X540Y1215D01*
X182Y1214D02*
X203Y1214D01*
X219Y1214D02*
X240Y1214D01*
X482Y1214D02*
X503Y1214D01*
X519Y1214D02*
X540Y1214D01*
X182Y1213D02*
X201Y1213D01*
X221Y1213D02*
X240Y1213D01*
X482Y1213D02*
X501Y1213D01*
X521Y1213D02*
X540Y1213D01*
X182Y1212D02*
X200Y1212D01*
X223Y1212D02*
X240Y1212D01*
X482Y1212D02*
X500Y1212D01*
X523Y1212D02*
X540Y1212D01*
X182Y1211D02*
X198Y1211D01*
X224Y1211D02*
X240Y1211D01*
X482Y1211D02*
X498Y1211D01*
X524Y1211D02*
X540Y1211D01*
X182Y1210D02*
X197Y1210D01*
X225Y1210D02*
X240Y1210D01*
X482Y1210D02*
X497Y1210D01*
X525Y1210D02*
X540Y1210D01*
X182Y1209D02*
X196Y1209D01*
X226Y1209D02*
X240Y1209D01*
X482Y1209D02*
X496Y1209D01*
X526Y1209D02*
X540Y1209D01*
X182Y1208D02*
X195Y1208D01*
X227Y1208D02*
X240Y1208D01*
X482Y1208D02*
X495Y1208D01*
X527Y1208D02*
X540Y1208D01*
X182Y1207D02*
X195Y1207D01*
X228Y1207D02*
X240Y1207D01*
X482Y1207D02*
X495Y1207D01*
X528Y1207D02*
X540Y1207D01*
X182Y1206D02*
X194Y1206D01*
X228Y1206D02*
X240Y1206D01*
X482Y1206D02*
X494Y1206D01*
X528Y1206D02*
X540Y1206D01*
X182Y1205D02*
X193Y1205D01*
X229Y1205D02*
X240Y1205D01*
X482Y1205D02*
X493Y1205D01*
X529Y1205D02*
X540Y1205D01*
X182Y1204D02*
X193Y1204D01*
X230Y1204D02*
X240Y1204D01*
X482Y1204D02*
X493Y1204D01*
X529Y1204D02*
X540Y1204D01*
X182Y1203D02*
X192Y1203D01*
X230Y1203D02*
X240Y1203D01*
X482Y1203D02*
X492Y1203D01*
X530Y1203D02*
X540Y1203D01*
X182Y1202D02*
X192Y1202D01*
X230Y1202D02*
X240Y1202D01*
X482Y1202D02*
X492Y1202D01*
X530Y1202D02*
X540Y1202D01*
X182Y1201D02*
X192Y1201D01*
X231Y1201D02*
X240Y1201D01*
X482Y1201D02*
X492Y1201D01*
X531Y1201D02*
X540Y1201D01*
X182Y1200D02*
X192Y1200D01*
X231Y1200D02*
X240Y1200D01*
X482Y1200D02*
X491Y1200D01*
X531Y1200D02*
X540Y1200D01*
X182Y1199D02*
X191Y1199D01*
X231Y1199D02*
X240Y1199D01*
X482Y1199D02*
X491Y1199D01*
X531Y1199D02*
X540Y1199D01*
X182Y1198D02*
X191Y1198D01*
X231Y1198D02*
X240Y1198D01*
X482Y1198D02*
X491Y1198D01*
X531Y1198D02*
X540Y1198D01*
X182Y1197D02*
X191Y1197D01*
X231Y1197D02*
X240Y1197D01*
X482Y1197D02*
X491Y1197D01*
X531Y1197D02*
X540Y1197D01*
X182Y1196D02*
X191Y1196D01*
X231Y1196D02*
X240Y1196D01*
X482Y1196D02*
X491Y1196D01*
X531Y1196D02*
X540Y1196D01*
X182Y1195D02*
X191Y1195D01*
X231Y1195D02*
X240Y1195D01*
X482Y1195D02*
X491Y1195D01*
X531Y1195D02*
X540Y1195D01*
X182Y1194D02*
X191Y1194D01*
X231Y1194D02*
X240Y1194D01*
X482Y1194D02*
X491Y1194D01*
X531Y1194D02*
X540Y1194D01*
X182Y1193D02*
X191Y1193D01*
X231Y1193D02*
X240Y1193D01*
X482Y1193D02*
X491Y1193D01*
X531Y1193D02*
X540Y1193D01*
X182Y1192D02*
X191Y1192D01*
X231Y1192D02*
X240Y1192D01*
X482Y1192D02*
X491Y1192D01*
X531Y1192D02*
X540Y1192D01*
X182Y1191D02*
X192Y1191D01*
X231Y1191D02*
X240Y1191D01*
X482Y1191D02*
X492Y1191D01*
X531Y1191D02*
X540Y1191D01*
X182Y1190D02*
X192Y1190D01*
X230Y1190D02*
X240Y1190D01*
X482Y1190D02*
X492Y1190D01*
X530Y1190D02*
X540Y1190D01*
X182Y1189D02*
X192Y1189D01*
X230Y1189D02*
X240Y1189D01*
X482Y1189D02*
X492Y1189D01*
X530Y1189D02*
X540Y1189D01*
X182Y1188D02*
X193Y1188D01*
X230Y1188D02*
X240Y1188D01*
X482Y1188D02*
X493Y1188D01*
X530Y1188D02*
X540Y1188D01*
X182Y1187D02*
X193Y1187D01*
X229Y1187D02*
X240Y1187D01*
X482Y1187D02*
X493Y1187D01*
X529Y1187D02*
X540Y1187D01*
X182Y1186D02*
X194Y1186D01*
X229Y1186D02*
X240Y1186D01*
X482Y1186D02*
X494Y1186D01*
X529Y1186D02*
X540Y1186D01*
X182Y1185D02*
X194Y1185D01*
X228Y1185D02*
X240Y1185D01*
X482Y1185D02*
X494Y1185D01*
X528Y1185D02*
X540Y1185D01*
X182Y1184D02*
X195Y1184D01*
X227Y1184D02*
X240Y1184D01*
X482Y1184D02*
X495Y1184D01*
X527Y1184D02*
X540Y1184D01*
X182Y1183D02*
X196Y1183D01*
X227Y1183D02*
X240Y1183D01*
X482Y1183D02*
X496Y1183D01*
X527Y1183D02*
X540Y1183D01*
X182Y1182D02*
X197Y1182D01*
X226Y1182D02*
X240Y1182D01*
X482Y1182D02*
X497Y1182D01*
X526Y1182D02*
X540Y1182D01*
X182Y1181D02*
X198Y1181D01*
X225Y1181D02*
X240Y1181D01*
X482Y1181D02*
X498Y1181D01*
X525Y1181D02*
X540Y1181D01*
X182Y1180D02*
X199Y1180D01*
X223Y1180D02*
X240Y1180D01*
X482Y1180D02*
X499Y1180D01*
X523Y1180D02*
X540Y1180D01*
X182Y1179D02*
X201Y1179D01*
X222Y1179D02*
X240Y1179D01*
X482Y1179D02*
X500Y1179D01*
X522Y1179D02*
X540Y1179D01*
X182Y1178D02*
X202Y1178D01*
X220Y1178D02*
X240Y1178D01*
X482Y1178D02*
X502Y1178D01*
X520Y1178D02*
X540Y1178D01*
X182Y1177D02*
X205Y1177D01*
X217Y1177D02*
X240Y1177D01*
X482Y1177D02*
X505Y1177D01*
X517Y1177D02*
X540Y1177D01*
X182Y1176D02*
X240Y1176D01*
X482Y1176D02*
X540Y1176D01*
X182Y1175D02*
X240Y1175D01*
X482Y1175D02*
X540Y1175D01*
X182Y1174D02*
X240Y1174D01*
X482Y1174D02*
X540Y1174D01*
X182Y1173D02*
X240Y1173D01*
X482Y1173D02*
X540Y1173D01*
X182Y1172D02*
X240Y1172D01*
X482Y1172D02*
X540Y1172D01*
X182Y1171D02*
X240Y1171D01*
X482Y1171D02*
X540Y1171D01*
X182Y1170D02*
X240Y1170D01*
X482Y1170D02*
X540Y1170D01*
X182Y1169D02*
X240Y1169D01*
X482Y1169D02*
X540Y1169D01*
X182Y1168D02*
X240Y1168D01*
X482Y1168D02*
X540Y1168D01*
X182Y1167D02*
X240Y1167D01*
X482Y1167D02*
X540Y1167D01*
X182Y1025D02*
X240Y1025D01*
X482Y1025D02*
X540Y1025D01*
X182Y1024D02*
X240Y1024D01*
X482Y1024D02*
X540Y1024D01*
X182Y1023D02*
X240Y1023D01*
X482Y1023D02*
X540Y1023D01*
X182Y1022D02*
X240Y1022D01*
X482Y1022D02*
X540Y1022D01*
X182Y1021D02*
X240Y1021D01*
X482Y1021D02*
X540Y1021D01*
X182Y1020D02*
X240Y1020D01*
X482Y1020D02*
X540Y1020D01*
X182Y1019D02*
X240Y1019D01*
X482Y1019D02*
X540Y1019D01*
X182Y1018D02*
X240Y1018D01*
X482Y1018D02*
X540Y1018D01*
X182Y1017D02*
X240Y1017D01*
X482Y1017D02*
X540Y1017D01*
X182Y1016D02*
X240Y1016D01*
X482Y1016D02*
X540Y1016D01*
X182Y1015D02*
X207Y1015D01*
X216Y1015D02*
X240Y1015D01*
X482Y1015D02*
X507Y1015D01*
X516Y1015D02*
X540Y1015D01*
X182Y1014D02*
X203Y1014D01*
X219Y1014D02*
X240Y1014D01*
X482Y1014D02*
X503Y1014D01*
X519Y1014D02*
X540Y1014D01*
X182Y1013D02*
X201Y1013D01*
X221Y1013D02*
X240Y1013D01*
X482Y1013D02*
X501Y1013D01*
X521Y1013D02*
X540Y1013D01*
X182Y1012D02*
X200Y1012D01*
X223Y1012D02*
X240Y1012D01*
X482Y1012D02*
X500Y1012D01*
X523Y1012D02*
X540Y1012D01*
X182Y1011D02*
X198Y1011D01*
X224Y1011D02*
X240Y1011D01*
X482Y1011D02*
X498Y1011D01*
X524Y1011D02*
X540Y1011D01*
X182Y1010D02*
X197Y1010D01*
X225Y1010D02*
X240Y1010D01*
X482Y1010D02*
X497Y1010D01*
X525Y1010D02*
X540Y1010D01*
X182Y1009D02*
X196Y1009D01*
X226Y1009D02*
X240Y1009D01*
X482Y1009D02*
X496Y1009D01*
X526Y1009D02*
X540Y1009D01*
X182Y1008D02*
X195Y1008D01*
X227Y1008D02*
X240Y1008D01*
X482Y1008D02*
X495Y1008D01*
X527Y1008D02*
X540Y1008D01*
X182Y1007D02*
X195Y1007D01*
X228Y1007D02*
X240Y1007D01*
X482Y1007D02*
X495Y1007D01*
X528Y1007D02*
X540Y1007D01*
X182Y1006D02*
X194Y1006D01*
X228Y1006D02*
X240Y1006D01*
X482Y1006D02*
X494Y1006D01*
X528Y1006D02*
X540Y1006D01*
X182Y1005D02*
X193Y1005D01*
X229Y1005D02*
X240Y1005D01*
X482Y1005D02*
X493Y1005D01*
X529Y1005D02*
X540Y1005D01*
X182Y1004D02*
X193Y1004D01*
X230Y1004D02*
X240Y1004D01*
X482Y1004D02*
X493Y1004D01*
X529Y1004D02*
X540Y1004D01*
X182Y1003D02*
X192Y1003D01*
X230Y1003D02*
X240Y1003D01*
X482Y1003D02*
X492Y1003D01*
X530Y1003D02*
X540Y1003D01*
X182Y1002D02*
X192Y1002D01*
X230Y1002D02*
X240Y1002D01*
X482Y1002D02*
X492Y1002D01*
X530Y1002D02*
X540Y1002D01*
X182Y1001D02*
X192Y1001D01*
X231Y1001D02*
X240Y1001D01*
X482Y1001D02*
X492Y1001D01*
X531Y1001D02*
X540Y1001D01*
X182Y1000D02*
X192Y1000D01*
X231Y1000D02*
X240Y1000D01*
X482Y1000D02*
X491Y1000D01*
X531Y1000D02*
X540Y1000D01*
X182Y999D02*
X191Y999D01*
X231Y999D02*
X240Y999D01*
X482Y999D02*
X491Y999D01*
X531Y999D02*
X540Y999D01*
X182Y998D02*
X191Y998D01*
X231Y998D02*
X240Y998D01*
X482Y998D02*
X491Y998D01*
X531Y998D02*
X540Y998D01*
X182Y997D02*
X191Y997D01*
X231Y997D02*
X240Y997D01*
X482Y997D02*
X491Y997D01*
X531Y997D02*
X540Y997D01*
X182Y996D02*
X191Y996D01*
X231Y996D02*
X240Y996D01*
X482Y996D02*
X491Y996D01*
X531Y996D02*
X540Y996D01*
X182Y995D02*
X191Y995D01*
X231Y995D02*
X240Y995D01*
X482Y995D02*
X491Y995D01*
X531Y995D02*
X540Y995D01*
X182Y994D02*
X191Y994D01*
X231Y994D02*
X240Y994D01*
X482Y994D02*
X491Y994D01*
X531Y994D02*
X540Y994D01*
X182Y993D02*
X191Y993D01*
X231Y993D02*
X240Y993D01*
X482Y993D02*
X491Y993D01*
X531Y993D02*
X540Y993D01*
X182Y992D02*
X191Y992D01*
X231Y992D02*
X240Y992D01*
X482Y992D02*
X491Y992D01*
X531Y992D02*
X540Y992D01*
X182Y991D02*
X192Y991D01*
X231Y991D02*
X240Y991D01*
X482Y991D02*
X492Y991D01*
X531Y991D02*
X540Y991D01*
X182Y990D02*
X192Y990D01*
X230Y990D02*
X240Y990D01*
X482Y990D02*
X492Y990D01*
X530Y990D02*
X540Y990D01*
X182Y989D02*
X192Y989D01*
X230Y989D02*
X240Y989D01*
X482Y989D02*
X492Y989D01*
X530Y989D02*
X540Y989D01*
X182Y988D02*
X193Y988D01*
X230Y988D02*
X240Y988D01*
X482Y988D02*
X493Y988D01*
X530Y988D02*
X540Y988D01*
X182Y987D02*
X193Y987D01*
X229Y987D02*
X240Y987D01*
X482Y987D02*
X493Y987D01*
X529Y987D02*
X540Y987D01*
X182Y986D02*
X194Y986D01*
X229Y986D02*
X240Y986D01*
X482Y986D02*
X494Y986D01*
X529Y986D02*
X540Y986D01*
X182Y985D02*
X194Y985D01*
X228Y985D02*
X240Y985D01*
X482Y985D02*
X494Y985D01*
X528Y985D02*
X540Y985D01*
X182Y984D02*
X195Y984D01*
X227Y984D02*
X240Y984D01*
X482Y984D02*
X495Y984D01*
X527Y984D02*
X540Y984D01*
X182Y983D02*
X196Y983D01*
X227Y983D02*
X240Y983D01*
X482Y983D02*
X496Y983D01*
X527Y983D02*
X540Y983D01*
X182Y982D02*
X197Y982D01*
X226Y982D02*
X240Y982D01*
X482Y982D02*
X497Y982D01*
X526Y982D02*
X540Y982D01*
X182Y981D02*
X198Y981D01*
X225Y981D02*
X240Y981D01*
X482Y981D02*
X498Y981D01*
X525Y981D02*
X540Y981D01*
X182Y980D02*
X199Y980D01*
X223Y980D02*
X240Y980D01*
X482Y980D02*
X499Y980D01*
X523Y980D02*
X540Y980D01*
X182Y979D02*
X201Y979D01*
X222Y979D02*
X240Y979D01*
X482Y979D02*
X500Y979D01*
X522Y979D02*
X540Y979D01*
X182Y978D02*
X202Y978D01*
X220Y978D02*
X240Y978D01*
X482Y978D02*
X502Y978D01*
X520Y978D02*
X540Y978D01*
X182Y977D02*
X205Y977D01*
X217Y977D02*
X240Y977D01*
X482Y977D02*
X505Y977D01*
X517Y977D02*
X540Y977D01*
X182Y976D02*
X240Y976D01*
X482Y976D02*
X540Y976D01*
X182Y975D02*
X240Y975D01*
X482Y975D02*
X540Y975D01*
X182Y974D02*
X240Y974D01*
X482Y974D02*
X540Y974D01*
X182Y973D02*
X240Y973D01*
X482Y973D02*
X540Y973D01*
X182Y972D02*
X240Y972D01*
X482Y972D02*
X540Y972D01*
X182Y971D02*
X240Y971D01*
X482Y971D02*
X540Y971D01*
X182Y970D02*
X240Y970D01*
X482Y970D02*
X540Y970D01*
X182Y969D02*
X240Y969D01*
X482Y969D02*
X540Y969D01*
X182Y968D02*
X240Y968D01*
X482Y968D02*
X540Y968D01*
X182Y967D02*
X240Y967D01*
X482Y967D02*
X540Y967D01*
X140Y849D02*
X198Y849D01*
X530Y849D02*
X588Y849D01*
X140Y848D02*
X198Y848D01*
X529Y848D02*
X588Y848D01*
X140Y847D02*
X198Y847D01*
X529Y847D02*
X588Y847D01*
X140Y846D02*
X198Y846D01*
X529Y846D02*
X588Y846D01*
X140Y845D02*
X198Y845D01*
X529Y845D02*
X588Y845D01*
X140Y844D02*
X198Y844D01*
X529Y844D02*
X588Y844D01*
X140Y843D02*
X198Y843D01*
X529Y843D02*
X588Y843D01*
X140Y842D02*
X198Y842D01*
X529Y842D02*
X588Y842D01*
X140Y841D02*
X198Y841D01*
X529Y841D02*
X588Y841D01*
X140Y840D02*
X198Y840D01*
X529Y840D02*
X588Y840D01*
X140Y839D02*
X167Y839D01*
X171Y839D02*
X198Y839D01*
X529Y839D02*
X556Y839D01*
X561Y839D02*
X588Y839D01*
X140Y838D02*
X162Y838D01*
X176Y838D02*
X198Y838D01*
X529Y838D02*
X552Y838D01*
X566Y838D02*
X588Y838D01*
X140Y837D02*
X160Y837D01*
X178Y837D02*
X198Y837D01*
X529Y837D02*
X549Y837D01*
X568Y837D02*
X588Y837D01*
X140Y836D02*
X158Y836D01*
X180Y836D02*
X198Y836D01*
X529Y836D02*
X548Y836D01*
X570Y836D02*
X588Y836D01*
X140Y835D02*
X157Y835D01*
X182Y835D02*
X198Y835D01*
X529Y835D02*
X546Y835D01*
X571Y835D02*
X588Y835D01*
X140Y834D02*
X155Y834D01*
X183Y834D02*
X198Y834D01*
X529Y834D02*
X545Y834D01*
X572Y834D02*
X588Y834D01*
X140Y833D02*
X154Y833D01*
X184Y833D02*
X198Y833D01*
X529Y833D02*
X544Y833D01*
X573Y833D02*
X588Y833D01*
X140Y832D02*
X153Y832D01*
X185Y832D02*
X198Y832D01*
X529Y832D02*
X543Y832D01*
X574Y832D02*
X588Y832D01*
X140Y831D02*
X153Y831D01*
X185Y831D02*
X198Y831D01*
X529Y831D02*
X542Y831D01*
X575Y831D02*
X588Y831D01*
X140Y830D02*
X152Y830D01*
X186Y830D02*
X198Y830D01*
X529Y830D02*
X542Y830D01*
X576Y830D02*
X588Y830D01*
X140Y829D02*
X151Y829D01*
X187Y829D02*
X198Y829D01*
X529Y829D02*
X541Y829D01*
X576Y829D02*
X588Y829D01*
X140Y828D02*
X151Y828D01*
X187Y828D02*
X198Y828D01*
X529Y828D02*
X540Y828D01*
X577Y828D02*
X588Y828D01*
X140Y827D02*
X150Y827D01*
X188Y827D02*
X198Y827D01*
X529Y827D02*
X540Y827D01*
X577Y827D02*
X588Y827D01*
X140Y826D02*
X150Y826D01*
X188Y826D02*
X198Y826D01*
X529Y826D02*
X540Y826D01*
X578Y826D02*
X588Y826D01*
X140Y825D02*
X150Y825D01*
X188Y825D02*
X198Y825D01*
X529Y825D02*
X539Y825D01*
X578Y825D02*
X588Y825D01*
X140Y824D02*
X149Y824D01*
X189Y824D02*
X198Y824D01*
X529Y824D02*
X539Y824D01*
X578Y824D02*
X588Y824D01*
X140Y823D02*
X149Y823D01*
X189Y823D02*
X198Y823D01*
X529Y823D02*
X539Y823D01*
X578Y823D02*
X588Y823D01*
X140Y822D02*
X149Y822D01*
X189Y822D02*
X198Y822D01*
X529Y822D02*
X539Y822D01*
X579Y822D02*
X588Y822D01*
X140Y821D02*
X149Y821D01*
X189Y821D02*
X198Y821D01*
X529Y821D02*
X539Y821D01*
X579Y821D02*
X588Y821D01*
X140Y820D02*
X149Y820D01*
X189Y820D02*
X198Y820D01*
X529Y820D02*
X539Y820D01*
X579Y820D02*
X588Y820D01*
X140Y819D02*
X149Y819D01*
X189Y819D02*
X198Y819D01*
X529Y819D02*
X539Y819D01*
X579Y819D02*
X588Y819D01*
X140Y818D02*
X149Y818D01*
X189Y818D02*
X198Y818D01*
X529Y818D02*
X539Y818D01*
X579Y818D02*
X588Y818D01*
X140Y817D02*
X149Y817D01*
X189Y817D02*
X198Y817D01*
X529Y817D02*
X539Y817D01*
X579Y817D02*
X588Y817D01*
X140Y816D02*
X149Y816D01*
X189Y816D02*
X198Y816D01*
X529Y816D02*
X539Y816D01*
X578Y816D02*
X588Y816D01*
X140Y815D02*
X149Y815D01*
X189Y815D02*
X198Y815D01*
X529Y815D02*
X539Y815D01*
X578Y815D02*
X588Y815D01*
X140Y814D02*
X150Y814D01*
X188Y814D02*
X198Y814D01*
X529Y814D02*
X539Y814D01*
X578Y814D02*
X588Y814D01*
X140Y813D02*
X150Y813D01*
X188Y813D02*
X198Y813D01*
X529Y813D02*
X540Y813D01*
X578Y813D02*
X588Y813D01*
X140Y812D02*
X150Y812D01*
X188Y812D02*
X198Y812D01*
X529Y812D02*
X540Y812D01*
X577Y812D02*
X588Y812D01*
X140Y811D02*
X151Y811D01*
X187Y811D02*
X198Y811D01*
X529Y811D02*
X540Y811D01*
X577Y811D02*
X588Y811D01*
X140Y810D02*
X151Y810D01*
X187Y810D02*
X198Y810D01*
X529Y810D02*
X541Y810D01*
X576Y810D02*
X588Y810D01*
X140Y809D02*
X152Y809D01*
X186Y809D02*
X198Y809D01*
X529Y809D02*
X542Y809D01*
X576Y809D02*
X588Y809D01*
X140Y808D02*
X153Y808D01*
X185Y808D02*
X198Y808D01*
X529Y808D02*
X542Y808D01*
X575Y808D02*
X588Y808D01*
X140Y807D02*
X153Y807D01*
X185Y807D02*
X198Y807D01*
X529Y807D02*
X543Y807D01*
X574Y807D02*
X588Y807D01*
X140Y806D02*
X154Y806D01*
X184Y806D02*
X198Y806D01*
X529Y806D02*
X544Y806D01*
X573Y806D02*
X588Y806D01*
X140Y805D02*
X155Y805D01*
X183Y805D02*
X198Y805D01*
X529Y805D02*
X545Y805D01*
X572Y805D02*
X588Y805D01*
X140Y804D02*
X157Y804D01*
X182Y804D02*
X198Y804D01*
X529Y804D02*
X546Y804D01*
X571Y804D02*
X588Y804D01*
X140Y803D02*
X158Y803D01*
X180Y803D02*
X198Y803D01*
X529Y803D02*
X548Y803D01*
X570Y803D02*
X588Y803D01*
X140Y802D02*
X160Y802D01*
X178Y802D02*
X198Y802D01*
X529Y802D02*
X549Y802D01*
X568Y802D02*
X588Y802D01*
X140Y801D02*
X162Y801D01*
X176Y801D02*
X198Y801D01*
X529Y801D02*
X552Y801D01*
X566Y801D02*
X588Y801D01*
X140Y800D02*
X167Y800D01*
X171Y800D02*
X198Y800D01*
X529Y800D02*
X556Y800D01*
X561Y800D02*
X588Y800D01*
X140Y799D02*
X198Y799D01*
X529Y799D02*
X588Y799D01*
X140Y798D02*
X198Y798D01*
X529Y798D02*
X588Y798D01*
X140Y797D02*
X198Y797D01*
X529Y797D02*
X588Y797D01*
X140Y796D02*
X198Y796D01*
X529Y796D02*
X588Y796D01*
X140Y795D02*
X198Y795D01*
X529Y795D02*
X588Y795D01*
X140Y794D02*
X198Y794D01*
X529Y794D02*
X588Y794D01*
X140Y793D02*
X198Y793D01*
X529Y793D02*
X588Y793D01*
X140Y792D02*
X198Y792D01*
X529Y792D02*
X588Y792D01*
X140Y791D02*
X198Y791D01*
X529Y791D02*
X588Y791D01*
X140Y790D02*
X198Y790D01*
X530Y790D02*
X588Y790D01*
X140Y699D02*
X198Y699D01*
X529Y699D02*
X588Y699D01*
X140Y698D02*
X198Y698D01*
X529Y698D02*
X588Y698D01*
X140Y697D02*
X198Y697D01*
X529Y697D02*
X588Y697D01*
X140Y696D02*
X198Y696D01*
X529Y696D02*
X588Y696D01*
X140Y695D02*
X198Y695D01*
X529Y695D02*
X588Y695D01*
X140Y694D02*
X198Y694D01*
X529Y694D02*
X588Y694D01*
X140Y693D02*
X198Y693D01*
X529Y693D02*
X588Y693D01*
X140Y692D02*
X198Y692D01*
X529Y692D02*
X588Y692D01*
X140Y691D02*
X198Y691D01*
X529Y691D02*
X588Y691D01*
X140Y690D02*
X198Y690D01*
X529Y690D02*
X588Y690D01*
X140Y689D02*
X164Y689D01*
X174Y689D02*
X198Y689D01*
X529Y689D02*
X554Y689D01*
X564Y689D02*
X588Y689D01*
X140Y688D02*
X161Y688D01*
X177Y688D02*
X198Y688D01*
X529Y688D02*
X550Y688D01*
X567Y688D02*
X588Y688D01*
X140Y687D02*
X159Y687D01*
X179Y687D02*
X198Y687D01*
X529Y687D02*
X549Y687D01*
X569Y687D02*
X588Y687D01*
X140Y686D02*
X157Y686D01*
X181Y686D02*
X198Y686D01*
X529Y686D02*
X547Y686D01*
X570Y686D02*
X588Y686D01*
X140Y685D02*
X156Y685D01*
X182Y685D02*
X198Y685D01*
X529Y685D02*
X546Y685D01*
X572Y685D02*
X588Y685D01*
X140Y684D02*
X155Y684D01*
X183Y684D02*
X198Y684D01*
X529Y684D02*
X544Y684D01*
X573Y684D02*
X588Y684D01*
X140Y683D02*
X154Y683D01*
X184Y683D02*
X198Y683D01*
X529Y683D02*
X544Y683D01*
X574Y683D02*
X588Y683D01*
X140Y682D02*
X153Y682D01*
X185Y682D02*
X198Y682D01*
X529Y682D02*
X543Y682D01*
X575Y682D02*
X588Y682D01*
X140Y681D02*
X152Y681D01*
X186Y681D02*
X198Y681D01*
X529Y681D02*
X542Y681D01*
X575Y681D02*
X588Y681D01*
X140Y680D02*
X152Y680D01*
X186Y680D02*
X198Y680D01*
X529Y680D02*
X541Y680D01*
X576Y680D02*
X588Y680D01*
X140Y679D02*
X151Y679D01*
X187Y679D02*
X198Y679D01*
X529Y679D02*
X541Y679D01*
X577Y679D02*
X588Y679D01*
X140Y678D02*
X151Y678D01*
X187Y678D02*
X198Y678D01*
X529Y678D02*
X540Y678D01*
X577Y678D02*
X588Y678D01*
X140Y677D02*
X150Y677D01*
X188Y677D02*
X198Y677D01*
X529Y677D02*
X540Y677D01*
X577Y677D02*
X588Y677D01*
X140Y676D02*
X150Y676D01*
X188Y676D02*
X198Y676D01*
X529Y676D02*
X540Y676D01*
X578Y676D02*
X588Y676D01*
X140Y675D02*
X150Y675D01*
X188Y675D02*
X198Y675D01*
X529Y675D02*
X539Y675D01*
X578Y675D02*
X588Y675D01*
X140Y674D02*
X149Y674D01*
X189Y674D02*
X198Y674D01*
X529Y674D02*
X539Y674D01*
X578Y674D02*
X588Y674D01*
X140Y673D02*
X149Y673D01*
X189Y673D02*
X198Y673D01*
X529Y673D02*
X539Y673D01*
X579Y673D02*
X588Y673D01*
X140Y672D02*
X149Y672D01*
X189Y672D02*
X198Y672D01*
X529Y672D02*
X539Y672D01*
X579Y672D02*
X588Y672D01*
X140Y671D02*
X149Y671D01*
X189Y671D02*
X198Y671D01*
X529Y671D02*
X539Y671D01*
X579Y671D02*
X588Y671D01*
X140Y670D02*
X149Y670D01*
X189Y670D02*
X198Y670D01*
X529Y670D02*
X539Y670D01*
X579Y670D02*
X588Y670D01*
X140Y669D02*
X149Y669D01*
X189Y669D02*
X198Y669D01*
X529Y669D02*
X539Y669D01*
X579Y669D02*
X588Y669D01*
X140Y668D02*
X149Y668D01*
X189Y668D02*
X198Y668D01*
X529Y668D02*
X539Y668D01*
X579Y668D02*
X588Y668D01*
X140Y667D02*
X149Y667D01*
X189Y667D02*
X198Y667D01*
X529Y667D02*
X539Y667D01*
X579Y667D02*
X588Y667D01*
X140Y666D02*
X149Y666D01*
X189Y666D02*
X198Y666D01*
X529Y666D02*
X539Y666D01*
X578Y666D02*
X588Y666D01*
X140Y665D02*
X150Y665D01*
X188Y665D02*
X198Y665D01*
X529Y665D02*
X539Y665D01*
X578Y665D02*
X588Y665D01*
X140Y664D02*
X150Y664D01*
X188Y664D02*
X198Y664D01*
X529Y664D02*
X539Y664D01*
X578Y664D02*
X588Y664D01*
X140Y663D02*
X150Y663D01*
X188Y663D02*
X198Y663D01*
X529Y663D02*
X540Y663D01*
X578Y663D02*
X588Y663D01*
X140Y662D02*
X151Y662D01*
X188Y662D02*
X198Y662D01*
X529Y662D02*
X540Y662D01*
X577Y662D02*
X588Y662D01*
X140Y661D02*
X151Y661D01*
X187Y661D02*
X198Y661D01*
X529Y661D02*
X541Y661D01*
X577Y661D02*
X588Y661D01*
X140Y660D02*
X152Y660D01*
X186Y660D02*
X198Y660D01*
X529Y660D02*
X541Y660D01*
X576Y660D02*
X588Y660D01*
X140Y659D02*
X152Y659D01*
X186Y659D02*
X198Y659D01*
X529Y659D02*
X542Y659D01*
X575Y659D02*
X588Y659D01*
X140Y658D02*
X153Y658D01*
X185Y658D02*
X198Y658D01*
X529Y658D02*
X543Y658D01*
X575Y658D02*
X588Y658D01*
X140Y657D02*
X154Y657D01*
X184Y657D02*
X198Y657D01*
X529Y657D02*
X543Y657D01*
X574Y657D02*
X588Y657D01*
X140Y656D02*
X155Y656D01*
X183Y656D02*
X198Y656D01*
X529Y656D02*
X544Y656D01*
X573Y656D02*
X588Y656D01*
X140Y655D02*
X156Y655D01*
X182Y655D02*
X198Y655D01*
X529Y655D02*
X545Y655D01*
X572Y655D02*
X588Y655D01*
X140Y654D02*
X157Y654D01*
X181Y654D02*
X198Y654D01*
X529Y654D02*
X547Y654D01*
X571Y654D02*
X588Y654D01*
X140Y653D02*
X159Y653D01*
X179Y653D02*
X198Y653D01*
X529Y653D02*
X548Y653D01*
X569Y653D02*
X588Y653D01*
X140Y652D02*
X160Y652D01*
X178Y652D02*
X198Y652D01*
X529Y652D02*
X550Y652D01*
X567Y652D02*
X588Y652D01*
X140Y651D02*
X163Y651D01*
X175Y651D02*
X198Y651D01*
X529Y651D02*
X553Y651D01*
X564Y651D02*
X588Y651D01*
X140Y650D02*
X198Y650D01*
X529Y650D02*
X588Y650D01*
X140Y649D02*
X198Y649D01*
X529Y649D02*
X588Y649D01*
X140Y648D02*
X198Y648D01*
X529Y648D02*
X588Y648D01*
X140Y647D02*
X198Y647D01*
X529Y647D02*
X588Y647D01*
X140Y646D02*
X198Y646D01*
X529Y646D02*
X588Y646D01*
X140Y645D02*
X198Y645D01*
X529Y645D02*
X588Y645D01*
X140Y644D02*
X198Y644D01*
X529Y644D02*
X588Y644D01*
X140Y643D02*
X198Y643D01*
X529Y643D02*
X588Y643D01*
X140Y642D02*
X198Y642D01*
X529Y642D02*
X588Y642D01*
X140Y641D02*
X198Y641D01*
X529Y641D02*
X588Y641D01*
X140Y599D02*
X198Y599D01*
X529Y599D02*
X588Y599D01*
X140Y598D02*
X198Y598D01*
X529Y598D02*
X588Y598D01*
X140Y597D02*
X198Y597D01*
X529Y597D02*
X588Y597D01*
X140Y596D02*
X198Y596D01*
X529Y596D02*
X588Y596D01*
X140Y595D02*
X198Y595D01*
X529Y595D02*
X588Y595D01*
X140Y594D02*
X198Y594D01*
X529Y594D02*
X588Y594D01*
X140Y593D02*
X198Y593D01*
X529Y593D02*
X588Y593D01*
X140Y592D02*
X198Y592D01*
X529Y592D02*
X588Y592D01*
X140Y591D02*
X198Y591D01*
X529Y591D02*
X588Y591D01*
X140Y590D02*
X198Y590D01*
X529Y590D02*
X588Y590D01*
X140Y589D02*
X163Y589D01*
X175Y589D02*
X198Y589D01*
X529Y589D02*
X553Y589D01*
X564Y589D02*
X588Y589D01*
X140Y588D02*
X160Y588D01*
X178Y588D02*
X198Y588D01*
X529Y588D02*
X550Y588D01*
X567Y588D02*
X588Y588D01*
X140Y587D02*
X158Y587D01*
X180Y587D02*
X198Y587D01*
X529Y587D02*
X548Y587D01*
X569Y587D02*
X588Y587D01*
X140Y586D02*
X157Y586D01*
X181Y586D02*
X198Y586D01*
X529Y586D02*
X547Y586D01*
X571Y586D02*
X588Y586D01*
X140Y585D02*
X156Y585D01*
X182Y585D02*
X198Y585D01*
X529Y585D02*
X545Y585D01*
X572Y585D02*
X588Y585D01*
X140Y584D02*
X155Y584D01*
X183Y584D02*
X198Y584D01*
X529Y584D02*
X544Y584D01*
X573Y584D02*
X588Y584D01*
X140Y583D02*
X154Y583D01*
X184Y583D02*
X198Y583D01*
X529Y583D02*
X543Y583D01*
X574Y583D02*
X588Y583D01*
X140Y582D02*
X153Y582D01*
X185Y582D02*
X198Y582D01*
X529Y582D02*
X543Y582D01*
X575Y582D02*
X588Y582D01*
X140Y581D02*
X152Y581D01*
X186Y581D02*
X198Y581D01*
X529Y581D02*
X542Y581D01*
X576Y581D02*
X588Y581D01*
X140Y580D02*
X152Y580D01*
X186Y580D02*
X198Y580D01*
X529Y580D02*
X541Y580D01*
X576Y580D02*
X588Y580D01*
X140Y579D02*
X151Y579D01*
X187Y579D02*
X198Y579D01*
X529Y579D02*
X541Y579D01*
X577Y579D02*
X588Y579D01*
X140Y578D02*
X151Y578D01*
X188Y578D02*
X198Y578D01*
X529Y578D02*
X540Y578D01*
X577Y578D02*
X588Y578D01*
X140Y577D02*
X150Y577D01*
X188Y577D02*
X198Y577D01*
X529Y577D02*
X540Y577D01*
X578Y577D02*
X588Y577D01*
X140Y576D02*
X150Y576D01*
X188Y576D02*
X198Y576D01*
X529Y576D02*
X539Y576D01*
X578Y576D02*
X588Y576D01*
X140Y575D02*
X150Y575D01*
X189Y575D02*
X198Y575D01*
X529Y575D02*
X539Y575D01*
X578Y575D02*
X588Y575D01*
X140Y574D02*
X149Y574D01*
X189Y574D02*
X198Y574D01*
X529Y574D02*
X539Y574D01*
X578Y574D02*
X588Y574D01*
X140Y573D02*
X149Y573D01*
X189Y573D02*
X198Y573D01*
X529Y573D02*
X539Y573D01*
X579Y573D02*
X588Y573D01*
X140Y572D02*
X149Y572D01*
X189Y572D02*
X198Y572D01*
X529Y572D02*
X539Y572D01*
X579Y572D02*
X588Y572D01*
X140Y571D02*
X149Y571D01*
X189Y571D02*
X198Y571D01*
X529Y571D02*
X539Y571D01*
X579Y571D02*
X588Y571D01*
X140Y570D02*
X149Y570D01*
X189Y570D02*
X198Y570D01*
X529Y570D02*
X539Y570D01*
X579Y570D02*
X588Y570D01*
X140Y569D02*
X149Y569D01*
X189Y569D02*
X198Y569D01*
X529Y569D02*
X539Y569D01*
X579Y569D02*
X588Y569D01*
X140Y568D02*
X149Y568D01*
X189Y568D02*
X198Y568D01*
X529Y568D02*
X539Y568D01*
X579Y568D02*
X588Y568D01*
X140Y567D02*
X149Y567D01*
X189Y567D02*
X198Y567D01*
X529Y567D02*
X539Y567D01*
X579Y567D02*
X588Y567D01*
X140Y566D02*
X149Y566D01*
X189Y566D02*
X198Y566D01*
X529Y566D02*
X539Y566D01*
X578Y566D02*
X588Y566D01*
X140Y565D02*
X150Y565D01*
X188Y565D02*
X198Y565D01*
X529Y565D02*
X539Y565D01*
X578Y565D02*
X588Y565D01*
X140Y564D02*
X150Y564D01*
X188Y564D02*
X198Y564D01*
X529Y564D02*
X540Y564D01*
X578Y564D02*
X588Y564D01*
X140Y563D02*
X150Y563D01*
X188Y563D02*
X198Y563D01*
X529Y563D02*
X540Y563D01*
X577Y563D02*
X588Y563D01*
X140Y562D02*
X151Y562D01*
X187Y562D02*
X198Y562D01*
X529Y562D02*
X540Y562D01*
X577Y562D02*
X588Y562D01*
X140Y561D02*
X151Y561D01*
X187Y561D02*
X198Y561D01*
X529Y561D02*
X541Y561D01*
X576Y561D02*
X588Y561D01*
X140Y560D02*
X152Y560D01*
X186Y560D02*
X198Y560D01*
X529Y560D02*
X541Y560D01*
X576Y560D02*
X588Y560D01*
X140Y559D02*
X152Y559D01*
X186Y559D02*
X198Y559D01*
X529Y559D02*
X542Y559D01*
X575Y559D02*
X588Y559D01*
X140Y558D02*
X153Y558D01*
X185Y558D02*
X198Y558D01*
X529Y558D02*
X543Y558D01*
X575Y558D02*
X588Y558D01*
X140Y557D02*
X154Y557D01*
X184Y557D02*
X198Y557D01*
X529Y557D02*
X544Y557D01*
X574Y557D02*
X588Y557D01*
X140Y556D02*
X155Y556D01*
X183Y556D02*
X198Y556D01*
X529Y556D02*
X545Y556D01*
X573Y556D02*
X588Y556D01*
X140Y555D02*
X156Y555D01*
X182Y555D02*
X198Y555D01*
X529Y555D02*
X546Y555D01*
X572Y555D02*
X588Y555D01*
X140Y554D02*
X157Y554D01*
X181Y554D02*
X198Y554D01*
X529Y554D02*
X547Y554D01*
X570Y554D02*
X588Y554D01*
X140Y553D02*
X159Y553D01*
X179Y553D02*
X198Y553D01*
X529Y553D02*
X549Y553D01*
X569Y553D02*
X588Y553D01*
X140Y552D02*
X161Y552D01*
X177Y552D02*
X198Y552D01*
X529Y552D02*
X551Y552D01*
X567Y552D02*
X588Y552D01*
X140Y551D02*
X164Y551D01*
X174Y551D02*
X198Y551D01*
X529Y551D02*
X554Y551D01*
X564Y551D02*
X588Y551D01*
X140Y550D02*
X198Y550D01*
X529Y550D02*
X588Y550D01*
X140Y549D02*
X198Y549D01*
X529Y549D02*
X588Y549D01*
X140Y548D02*
X198Y548D01*
X529Y548D02*
X588Y548D01*
X140Y547D02*
X198Y547D01*
X529Y547D02*
X588Y547D01*
X140Y546D02*
X198Y546D01*
X529Y546D02*
X588Y546D01*
X140Y545D02*
X198Y545D01*
X529Y545D02*
X588Y545D01*
X140Y544D02*
X198Y544D01*
X529Y544D02*
X588Y544D01*
X140Y543D02*
X198Y543D01*
X529Y543D02*
X588Y543D01*
X140Y542D02*
X198Y542D01*
X529Y542D02*
X588Y542D01*
X140Y541D02*
X198Y541D01*
X529Y541D02*
X588Y541D01*
X193Y403D02*
X251Y403D01*
X493Y403D02*
X551Y403D01*
X193Y402D02*
X251Y402D01*
X493Y402D02*
X551Y402D01*
X193Y401D02*
X251Y401D01*
X493Y401D02*
X551Y401D01*
X193Y400D02*
X251Y400D01*
X493Y400D02*
X551Y400D01*
X193Y399D02*
X251Y399D01*
X493Y399D02*
X551Y399D01*
X193Y398D02*
X251Y398D01*
X493Y398D02*
X551Y398D01*
X193Y397D02*
X251Y397D01*
X493Y397D02*
X551Y397D01*
X193Y396D02*
X251Y396D01*
X493Y396D02*
X551Y396D01*
X193Y395D02*
X251Y395D01*
X493Y395D02*
X551Y395D01*
X193Y394D02*
X251Y394D01*
X493Y394D02*
X551Y394D01*
X193Y393D02*
X220Y393D01*
X224Y393D02*
X251Y393D01*
X493Y393D02*
X520Y393D01*
X524Y393D02*
X551Y393D01*
X193Y392D02*
X215Y392D01*
X229Y392D02*
X251Y392D01*
X493Y392D02*
X515Y392D01*
X529Y392D02*
X551Y392D01*
X193Y391D02*
X213Y391D01*
X231Y391D02*
X251Y391D01*
X493Y391D02*
X513Y391D01*
X531Y391D02*
X551Y391D01*
X193Y390D02*
X211Y390D01*
X233Y390D02*
X251Y390D01*
X493Y390D02*
X511Y390D01*
X533Y390D02*
X551Y390D01*
X193Y389D02*
X210Y389D01*
X235Y389D02*
X251Y389D01*
X493Y389D02*
X510Y389D01*
X535Y389D02*
X551Y389D01*
X193Y388D02*
X209Y388D01*
X236Y388D02*
X251Y388D01*
X493Y388D02*
X509Y388D01*
X536Y388D02*
X551Y388D01*
X193Y387D02*
X208Y387D01*
X237Y387D02*
X251Y387D01*
X493Y387D02*
X507Y387D01*
X537Y387D02*
X551Y387D01*
X193Y386D02*
X207Y386D01*
X238Y386D02*
X251Y386D01*
X493Y386D02*
X507Y386D01*
X538Y386D02*
X551Y386D01*
X193Y385D02*
X206Y385D01*
X239Y385D02*
X251Y385D01*
X493Y385D02*
X506Y385D01*
X539Y385D02*
X551Y385D01*
X193Y384D02*
X205Y384D01*
X239Y384D02*
X251Y384D01*
X493Y384D02*
X505Y384D01*
X539Y384D02*
X551Y384D01*
X193Y383D02*
X205Y383D01*
X240Y383D02*
X251Y383D01*
X493Y383D02*
X505Y383D01*
X540Y383D02*
X551Y383D01*
X193Y382D02*
X204Y382D01*
X240Y382D02*
X251Y382D01*
X493Y382D02*
X504Y382D01*
X540Y382D02*
X551Y382D01*
X193Y381D02*
X204Y381D01*
X241Y381D02*
X251Y381D01*
X493Y381D02*
X504Y381D01*
X541Y381D02*
X551Y381D01*
X193Y380D02*
X203Y380D01*
X241Y380D02*
X251Y380D01*
X493Y380D02*
X503Y380D01*
X541Y380D02*
X551Y380D01*
X193Y379D02*
X203Y379D01*
X242Y379D02*
X251Y379D01*
X493Y379D02*
X503Y379D01*
X541Y379D02*
X551Y379D01*
X193Y378D02*
X203Y378D01*
X242Y378D02*
X251Y378D01*
X493Y378D02*
X503Y378D01*
X542Y378D02*
X551Y378D01*
X193Y377D02*
X202Y377D01*
X242Y377D02*
X251Y377D01*
X493Y377D02*
X502Y377D01*
X542Y377D02*
X551Y377D01*
X193Y376D02*
X202Y376D01*
X242Y376D02*
X251Y376D01*
X493Y376D02*
X502Y376D01*
X542Y376D02*
X551Y376D01*
X193Y375D02*
X202Y375D01*
X242Y375D02*
X251Y375D01*
X493Y375D02*
X502Y375D01*
X542Y375D02*
X551Y375D01*
X193Y374D02*
X202Y374D01*
X242Y374D02*
X251Y374D01*
X493Y374D02*
X502Y374D01*
X542Y374D02*
X551Y374D01*
X193Y373D02*
X202Y373D01*
X242Y373D02*
X251Y373D01*
X493Y373D02*
X502Y373D01*
X542Y373D02*
X551Y373D01*
X193Y372D02*
X202Y372D01*
X242Y372D02*
X251Y372D01*
X493Y372D02*
X502Y372D01*
X542Y372D02*
X551Y372D01*
X193Y371D02*
X202Y371D01*
X242Y371D02*
X251Y371D01*
X493Y371D02*
X502Y371D01*
X542Y371D02*
X551Y371D01*
X193Y370D02*
X202Y370D01*
X242Y370D02*
X251Y370D01*
X493Y370D02*
X502Y370D01*
X542Y370D02*
X551Y370D01*
X193Y369D02*
X203Y369D01*
X242Y369D02*
X251Y369D01*
X493Y369D02*
X503Y369D01*
X542Y369D02*
X551Y369D01*
X193Y368D02*
X203Y368D01*
X242Y368D02*
X251Y368D01*
X493Y368D02*
X503Y368D01*
X541Y368D02*
X551Y368D01*
X193Y367D02*
X203Y367D01*
X241Y367D02*
X251Y367D01*
X493Y367D02*
X503Y367D01*
X541Y367D02*
X551Y367D01*
X193Y366D02*
X204Y366D01*
X241Y366D02*
X251Y366D01*
X493Y366D02*
X503Y366D01*
X541Y366D02*
X551Y366D01*
X193Y365D02*
X204Y365D01*
X240Y365D02*
X251Y365D01*
X493Y365D02*
X504Y365D01*
X540Y365D02*
X551Y365D01*
X193Y364D02*
X205Y364D01*
X240Y364D02*
X251Y364D01*
X493Y364D02*
X504Y364D01*
X540Y364D02*
X551Y364D01*
X193Y363D02*
X205Y363D01*
X239Y363D02*
X251Y363D01*
X493Y363D02*
X505Y363D01*
X539Y363D02*
X551Y363D01*
X193Y362D02*
X206Y362D01*
X239Y362D02*
X251Y362D01*
X493Y362D02*
X506Y362D01*
X539Y362D02*
X551Y362D01*
X193Y361D02*
X207Y361D01*
X238Y361D02*
X251Y361D01*
X493Y361D02*
X507Y361D01*
X538Y361D02*
X551Y361D01*
X193Y360D02*
X207Y360D01*
X237Y360D02*
X251Y360D01*
X493Y360D02*
X507Y360D01*
X537Y360D02*
X551Y360D01*
X193Y359D02*
X208Y359D01*
X236Y359D02*
X251Y359D01*
X493Y359D02*
X508Y359D01*
X536Y359D02*
X551Y359D01*
X193Y358D02*
X210Y358D01*
X235Y358D02*
X251Y358D01*
X493Y358D02*
X510Y358D01*
X535Y358D02*
X551Y358D01*
X193Y357D02*
X211Y357D01*
X233Y357D02*
X251Y357D01*
X493Y357D02*
X511Y357D01*
X533Y357D02*
X551Y357D01*
X193Y356D02*
X213Y356D01*
X232Y356D02*
X251Y356D01*
X493Y356D02*
X513Y356D01*
X532Y356D02*
X551Y356D01*
X193Y355D02*
X215Y355D01*
X229Y355D02*
X251Y355D01*
X493Y355D02*
X515Y355D01*
X529Y355D02*
X551Y355D01*
X193Y354D02*
X219Y354D01*
X225Y354D02*
X251Y354D01*
X493Y354D02*
X519Y354D01*
X525Y354D02*
X551Y354D01*
X193Y353D02*
X251Y353D01*
X493Y353D02*
X551Y353D01*
X193Y352D02*
X251Y352D01*
X493Y352D02*
X551Y352D01*
X193Y351D02*
X251Y351D01*
X493Y351D02*
X551Y351D01*
X193Y350D02*
X251Y350D01*
X493Y350D02*
X551Y350D01*
X193Y349D02*
X251Y349D01*
X493Y349D02*
X551Y349D01*
X193Y348D02*
X251Y348D01*
X493Y348D02*
X551Y348D01*
X193Y347D02*
X251Y347D01*
X493Y347D02*
X551Y347D01*
X193Y346D02*
X251Y346D01*
X493Y346D02*
X551Y346D01*
X193Y345D02*
X251Y345D01*
X493Y345D02*
X551Y345D01*
X193Y344D02*
X251Y344D01*
X493Y344D02*
X551Y344D01*
X193Y203D02*
X251Y203D01*
X493Y203D02*
X551Y203D01*
X193Y202D02*
X251Y202D01*
X493Y202D02*
X551Y202D01*
X193Y201D02*
X251Y201D01*
X493Y201D02*
X551Y201D01*
X193Y200D02*
X251Y200D01*
X493Y200D02*
X551Y200D01*
X193Y199D02*
X251Y199D01*
X493Y199D02*
X551Y199D01*
X193Y198D02*
X251Y198D01*
X493Y198D02*
X551Y198D01*
X193Y197D02*
X251Y197D01*
X493Y197D02*
X551Y197D01*
X193Y196D02*
X251Y196D01*
X493Y196D02*
X551Y196D01*
X193Y195D02*
X251Y195D01*
X493Y195D02*
X551Y195D01*
X193Y194D02*
X251Y194D01*
X493Y194D02*
X551Y194D01*
X193Y193D02*
X220Y193D01*
X224Y193D02*
X251Y193D01*
X493Y193D02*
X520Y193D01*
X524Y193D02*
X551Y193D01*
X193Y192D02*
X215Y192D01*
X229Y192D02*
X251Y192D01*
X493Y192D02*
X515Y192D01*
X529Y192D02*
X551Y192D01*
X193Y191D02*
X213Y191D01*
X231Y191D02*
X251Y191D01*
X493Y191D02*
X513Y191D01*
X531Y191D02*
X551Y191D01*
X193Y190D02*
X211Y190D01*
X233Y190D02*
X251Y190D01*
X493Y190D02*
X511Y190D01*
X533Y190D02*
X551Y190D01*
X193Y189D02*
X210Y189D01*
X235Y189D02*
X251Y189D01*
X493Y189D02*
X510Y189D01*
X535Y189D02*
X551Y189D01*
X193Y188D02*
X209Y188D01*
X236Y188D02*
X251Y188D01*
X493Y188D02*
X508Y188D01*
X536Y188D02*
X551Y188D01*
X193Y187D02*
X208Y187D01*
X237Y187D02*
X251Y187D01*
X493Y187D02*
X507Y187D01*
X537Y187D02*
X551Y187D01*
X193Y186D02*
X207Y186D01*
X238Y186D02*
X251Y186D01*
X493Y186D02*
X507Y186D01*
X538Y186D02*
X551Y186D01*
X193Y185D02*
X206Y185D01*
X239Y185D02*
X251Y185D01*
X493Y185D02*
X506Y185D01*
X539Y185D02*
X551Y185D01*
X193Y184D02*
X205Y184D01*
X239Y184D02*
X251Y184D01*
X493Y184D02*
X505Y184D01*
X539Y184D02*
X551Y184D01*
X193Y183D02*
X205Y183D01*
X240Y183D02*
X251Y183D01*
X493Y183D02*
X505Y183D01*
X540Y183D02*
X551Y183D01*
X193Y182D02*
X204Y182D01*
X240Y182D02*
X251Y182D01*
X493Y182D02*
X504Y182D01*
X540Y182D02*
X551Y182D01*
X193Y181D02*
X204Y181D01*
X241Y181D02*
X251Y181D01*
X493Y181D02*
X504Y181D01*
X541Y181D02*
X551Y181D01*
X193Y180D02*
X203Y180D01*
X241Y180D02*
X251Y180D01*
X493Y180D02*
X503Y180D01*
X541Y180D02*
X551Y180D01*
X193Y179D02*
X203Y179D01*
X242Y179D02*
X251Y179D01*
X493Y179D02*
X503Y179D01*
X541Y179D02*
X551Y179D01*
X193Y178D02*
X203Y178D01*
X242Y178D02*
X251Y178D01*
X493Y178D02*
X503Y178D01*
X542Y178D02*
X551Y178D01*
X193Y177D02*
X202Y177D01*
X242Y177D02*
X251Y177D01*
X493Y177D02*
X502Y177D01*
X542Y177D02*
X551Y177D01*
X193Y176D02*
X202Y176D01*
X242Y176D02*
X251Y176D01*
X493Y176D02*
X502Y176D01*
X542Y176D02*
X551Y176D01*
X193Y175D02*
X202Y175D01*
X242Y175D02*
X251Y175D01*
X493Y175D02*
X502Y175D01*
X542Y175D02*
X551Y175D01*
X193Y174D02*
X202Y174D01*
X242Y174D02*
X251Y174D01*
X493Y174D02*
X502Y174D01*
X542Y174D02*
X551Y174D01*
X193Y173D02*
X202Y173D01*
X242Y173D02*
X251Y173D01*
X493Y173D02*
X502Y173D01*
X542Y173D02*
X551Y173D01*
X193Y172D02*
X202Y172D01*
X242Y172D02*
X251Y172D01*
X493Y172D02*
X502Y172D01*
X542Y172D02*
X551Y172D01*
X193Y171D02*
X202Y171D01*
X242Y171D02*
X251Y171D01*
X493Y171D02*
X502Y171D01*
X542Y171D02*
X551Y171D01*
X193Y170D02*
X202Y170D01*
X242Y170D02*
X251Y170D01*
X493Y170D02*
X502Y170D01*
X542Y170D02*
X551Y170D01*
X193Y169D02*
X203Y169D01*
X242Y169D02*
X251Y169D01*
X493Y169D02*
X503Y169D01*
X542Y169D02*
X551Y169D01*
X193Y168D02*
X203Y168D01*
X242Y168D02*
X251Y168D01*
X493Y168D02*
X503Y168D01*
X541Y168D02*
X551Y168D01*
X193Y167D02*
X203Y167D01*
X241Y167D02*
X251Y167D01*
X493Y167D02*
X503Y167D01*
X541Y167D02*
X551Y167D01*
X193Y166D02*
X204Y166D01*
X241Y166D02*
X251Y166D01*
X493Y166D02*
X503Y166D01*
X541Y166D02*
X551Y166D01*
X193Y165D02*
X204Y165D01*
X240Y165D02*
X251Y165D01*
X493Y165D02*
X504Y165D01*
X540Y165D02*
X551Y165D01*
X193Y164D02*
X205Y164D01*
X240Y164D02*
X251Y164D01*
X493Y164D02*
X504Y164D01*
X540Y164D02*
X551Y164D01*
X193Y163D02*
X205Y163D01*
X239Y163D02*
X251Y163D01*
X493Y163D02*
X505Y163D01*
X539Y163D02*
X551Y163D01*
X193Y162D02*
X206Y162D01*
X239Y162D02*
X251Y162D01*
X493Y162D02*
X506Y162D01*
X539Y162D02*
X551Y162D01*
X193Y161D02*
X207Y161D01*
X238Y161D02*
X251Y161D01*
X493Y161D02*
X507Y161D01*
X538Y161D02*
X551Y161D01*
X193Y160D02*
X207Y160D01*
X237Y160D02*
X251Y160D01*
X493Y160D02*
X507Y160D01*
X537Y160D02*
X551Y160D01*
X193Y159D02*
X208Y159D01*
X236Y159D02*
X251Y159D01*
X493Y159D02*
X508Y159D01*
X536Y159D02*
X551Y159D01*
X193Y158D02*
X210Y158D01*
X235Y158D02*
X251Y158D01*
X493Y158D02*
X510Y158D01*
X535Y158D02*
X551Y158D01*
X193Y157D02*
X211Y157D01*
X233Y157D02*
X251Y157D01*
X493Y157D02*
X511Y157D01*
X533Y157D02*
X551Y157D01*
X193Y156D02*
X213Y156D01*
X232Y156D02*
X251Y156D01*
X493Y156D02*
X513Y156D01*
X532Y156D02*
X551Y156D01*
X193Y155D02*
X215Y155D01*
X229Y155D02*
X251Y155D01*
X493Y155D02*
X515Y155D01*
X529Y155D02*
X551Y155D01*
X193Y154D02*
X219Y154D01*
X225Y154D02*
X251Y154D01*
X493Y154D02*
X519Y154D01*
X525Y154D02*
X551Y154D01*
X193Y153D02*
X251Y153D01*
X493Y153D02*
X551Y153D01*
X193Y152D02*
X251Y152D01*
X493Y152D02*
X551Y152D01*
X193Y151D02*
X251Y151D01*
X493Y151D02*
X551Y151D01*
X193Y150D02*
X251Y150D01*
X493Y150D02*
X551Y150D01*
X193Y149D02*
X251Y149D01*
X493Y149D02*
X551Y149D01*
X193Y148D02*
X251Y148D01*
X493Y148D02*
X551Y148D01*
X193Y147D02*
X251Y147D01*
X493Y147D02*
X551Y147D01*
X193Y146D02*
X251Y146D01*
X493Y146D02*
X551Y146D01*
X193Y145D02*
X251Y145D01*
X493Y145D02*
X551Y145D01*
X193Y144D02*
X251Y144D01*
X493Y144D02*
X551Y144D01*
D02*
G04 End of Copper0*
M02*