G04 MADE WITH FRITZING*
G04 WWW.FRITZING.ORG*
G04 DOUBLE SIDED*
G04 HOLES PLATED*
G04 CONTOUR ON CENTER OF CONTOUR VECTOR*
%ASAXBY*%
%FSLAX23Y23*%
%MOIN*%
%OFA0B0*%
%SFA1.0B1.0*%
%ADD10R,0.731224X1.338030X0.715224X1.322030*%
%ADD11C,0.008000*%
%ADD12C,0.005000*%
%ADD13C,0.005402*%
%ADD14C,0.005686*%
%ADD15R,0.001000X0.001000*%
%LNSILK1*%
G90*
G70*
G54D11*
X4Y1334D02*
X727Y1334D01*
X727Y4D01*
X4Y4D01*
X4Y1334D01*
D02*
G54D12*
X361Y1145D02*
X361Y1045D01*
D02*
X311Y1095D02*
X411Y1095D01*
D02*
X161Y1245D02*
X561Y1245D01*
D02*
X561Y1245D02*
X561Y945D01*
D02*
X561Y945D02*
X161Y945D01*
D02*
X161Y945D02*
X161Y1245D01*
D02*
X372Y323D02*
X372Y223D01*
D02*
X322Y273D02*
X422Y273D01*
D02*
X172Y423D02*
X572Y423D01*
D02*
X572Y423D02*
X572Y123D01*
D02*
X572Y123D02*
X172Y123D01*
D02*
X172Y123D02*
X172Y423D01*
G54D13*
D02*
X130Y881D02*
X597Y881D01*
D02*
X130Y493D02*
X597Y493D01*
G54D14*
D02*
X130Y493D02*
X130Y881D01*
D02*
X596Y493D02*
X596Y881D01*
G54D15*
X283Y759D02*
X300Y759D01*
X401Y759D02*
X401Y759D01*
X280Y758D02*
X304Y758D01*
X327Y758D02*
X330Y758D01*
X354Y758D02*
X358Y758D01*
X398Y758D02*
X405Y758D01*
X427Y758D02*
X430Y758D01*
X454Y758D02*
X458Y758D01*
X278Y757D02*
X305Y757D01*
X326Y757D02*
X331Y757D01*
X353Y757D02*
X359Y757D01*
X396Y757D02*
X406Y757D01*
X426Y757D02*
X431Y757D01*
X453Y757D02*
X459Y757D01*
X277Y756D02*
X307Y756D01*
X326Y756D02*
X332Y756D01*
X352Y756D02*
X359Y756D01*
X395Y756D02*
X407Y756D01*
X426Y756D02*
X431Y756D01*
X453Y756D02*
X459Y756D01*
X277Y755D02*
X307Y755D01*
X326Y755D02*
X332Y755D01*
X351Y755D02*
X359Y755D01*
X394Y755D02*
X408Y755D01*
X426Y755D02*
X432Y755D01*
X453Y755D02*
X459Y755D01*
X276Y754D02*
X308Y754D01*
X326Y754D02*
X332Y754D01*
X349Y754D02*
X359Y754D01*
X393Y754D02*
X408Y754D01*
X426Y754D02*
X432Y754D01*
X453Y754D02*
X459Y754D01*
X276Y753D02*
X309Y753D01*
X326Y753D02*
X332Y753D01*
X348Y753D02*
X358Y753D01*
X391Y753D02*
X409Y753D01*
X426Y753D02*
X432Y753D01*
X453Y753D02*
X459Y753D01*
X276Y752D02*
X283Y752D01*
X301Y752D02*
X309Y752D01*
X326Y752D02*
X332Y752D01*
X347Y752D02*
X357Y752D01*
X390Y752D02*
X409Y752D01*
X426Y752D02*
X432Y752D01*
X453Y752D02*
X459Y752D01*
X276Y751D02*
X282Y751D01*
X303Y751D02*
X309Y751D01*
X326Y751D02*
X332Y751D01*
X346Y751D02*
X356Y751D01*
X389Y751D02*
X399Y751D01*
X403Y751D02*
X409Y751D01*
X426Y751D02*
X432Y751D01*
X453Y751D02*
X459Y751D01*
X276Y750D02*
X282Y750D01*
X303Y750D02*
X309Y750D01*
X326Y750D02*
X332Y750D01*
X345Y750D02*
X355Y750D01*
X388Y750D02*
X398Y750D01*
X403Y750D02*
X409Y750D01*
X426Y750D02*
X432Y750D01*
X453Y750D02*
X459Y750D01*
X276Y749D02*
X283Y749D01*
X303Y749D02*
X309Y749D01*
X326Y749D02*
X332Y749D01*
X344Y749D02*
X353Y749D01*
X387Y749D02*
X397Y749D01*
X403Y749D02*
X409Y749D01*
X426Y749D02*
X432Y749D01*
X453Y749D02*
X459Y749D01*
X276Y748D02*
X284Y748D01*
X304Y748D02*
X309Y748D01*
X326Y748D02*
X332Y748D01*
X342Y748D02*
X352Y748D01*
X385Y748D02*
X395Y748D01*
X403Y748D02*
X409Y748D01*
X426Y748D02*
X432Y748D01*
X453Y748D02*
X459Y748D01*
X277Y747D02*
X285Y747D01*
X304Y747D02*
X308Y747D01*
X326Y747D02*
X332Y747D01*
X341Y747D02*
X351Y747D01*
X384Y747D02*
X394Y747D01*
X403Y747D02*
X409Y747D01*
X426Y747D02*
X432Y747D01*
X453Y747D02*
X459Y747D01*
X277Y746D02*
X285Y746D01*
X326Y746D02*
X332Y746D01*
X340Y746D02*
X350Y746D01*
X383Y746D02*
X393Y746D01*
X403Y746D02*
X409Y746D01*
X426Y746D02*
X432Y746D01*
X453Y746D02*
X459Y746D01*
X278Y745D02*
X286Y745D01*
X326Y745D02*
X332Y745D01*
X339Y745D02*
X349Y745D01*
X382Y745D02*
X392Y745D01*
X403Y745D02*
X409Y745D01*
X426Y745D02*
X432Y745D01*
X453Y745D02*
X459Y745D01*
X279Y744D02*
X287Y744D01*
X326Y744D02*
X332Y744D01*
X338Y744D02*
X348Y744D01*
X381Y744D02*
X391Y744D01*
X403Y744D02*
X409Y744D01*
X426Y744D02*
X432Y744D01*
X453Y744D02*
X459Y744D01*
X280Y743D02*
X288Y743D01*
X326Y743D02*
X332Y743D01*
X337Y743D02*
X346Y743D01*
X380Y743D02*
X389Y743D01*
X403Y743D02*
X409Y743D01*
X426Y743D02*
X432Y743D01*
X453Y743D02*
X459Y743D01*
X280Y742D02*
X288Y742D01*
X326Y742D02*
X332Y742D01*
X335Y742D02*
X345Y742D01*
X379Y742D02*
X388Y742D01*
X403Y742D02*
X409Y742D01*
X426Y742D02*
X432Y742D01*
X453Y742D02*
X459Y742D01*
X281Y741D02*
X289Y741D01*
X326Y741D02*
X332Y741D01*
X334Y741D02*
X344Y741D01*
X378Y741D02*
X387Y741D01*
X403Y741D02*
X409Y741D01*
X426Y741D02*
X432Y741D01*
X453Y741D02*
X459Y741D01*
X282Y740D02*
X290Y740D01*
X326Y740D02*
X343Y740D01*
X377Y740D02*
X386Y740D01*
X403Y740D02*
X409Y740D01*
X426Y740D02*
X432Y740D01*
X453Y740D02*
X459Y740D01*
X283Y739D02*
X291Y739D01*
X326Y739D02*
X342Y739D01*
X377Y739D02*
X385Y739D01*
X403Y739D02*
X409Y739D01*
X426Y739D02*
X432Y739D01*
X453Y739D02*
X459Y739D01*
X284Y738D02*
X292Y738D01*
X326Y738D02*
X341Y738D01*
X376Y738D02*
X384Y738D01*
X403Y738D02*
X409Y738D01*
X426Y738D02*
X432Y738D01*
X453Y738D02*
X459Y738D01*
X284Y737D02*
X292Y737D01*
X326Y737D02*
X339Y737D01*
X376Y737D02*
X383Y737D01*
X403Y737D02*
X409Y737D01*
X426Y737D02*
X432Y737D01*
X453Y737D02*
X459Y737D01*
X285Y736D02*
X293Y736D01*
X326Y736D02*
X338Y736D01*
X376Y736D02*
X382Y736D01*
X403Y736D02*
X409Y736D01*
X426Y736D02*
X432Y736D01*
X453Y736D02*
X459Y736D01*
X286Y735D02*
X294Y735D01*
X326Y735D02*
X337Y735D01*
X376Y735D02*
X382Y735D01*
X403Y735D02*
X409Y735D01*
X426Y735D02*
X432Y735D01*
X453Y735D02*
X459Y735D01*
X287Y734D02*
X295Y734D01*
X326Y734D02*
X336Y734D01*
X376Y734D02*
X382Y734D01*
X403Y734D02*
X409Y734D01*
X426Y734D02*
X432Y734D01*
X453Y734D02*
X459Y734D01*
X287Y733D02*
X295Y733D01*
X326Y733D02*
X335Y733D01*
X376Y733D02*
X382Y733D01*
X403Y733D02*
X409Y733D01*
X426Y733D02*
X432Y733D01*
X453Y733D02*
X459Y733D01*
X288Y732D02*
X296Y732D01*
X326Y732D02*
X334Y732D01*
X376Y732D02*
X382Y732D01*
X403Y732D02*
X409Y732D01*
X426Y732D02*
X432Y732D01*
X453Y732D02*
X459Y732D01*
X289Y731D02*
X297Y731D01*
X326Y731D02*
X335Y731D01*
X376Y731D02*
X382Y731D01*
X403Y731D02*
X409Y731D01*
X426Y731D02*
X432Y731D01*
X453Y731D02*
X459Y731D01*
X290Y730D02*
X298Y730D01*
X326Y730D02*
X336Y730D01*
X376Y730D02*
X382Y730D01*
X403Y730D02*
X409Y730D01*
X426Y730D02*
X432Y730D01*
X453Y730D02*
X459Y730D01*
X291Y729D02*
X299Y729D01*
X326Y729D02*
X337Y729D01*
X376Y729D02*
X382Y729D01*
X391Y729D02*
X394Y729D01*
X403Y729D02*
X409Y729D01*
X426Y729D02*
X432Y729D01*
X453Y729D02*
X459Y729D01*
X291Y728D02*
X299Y728D01*
X326Y728D02*
X338Y728D01*
X376Y728D02*
X382Y728D01*
X390Y728D02*
X395Y728D01*
X402Y728D02*
X409Y728D01*
X426Y728D02*
X432Y728D01*
X453Y728D02*
X459Y728D01*
X292Y727D02*
X300Y727D01*
X326Y727D02*
X339Y727D01*
X376Y727D02*
X382Y727D01*
X389Y727D02*
X395Y727D01*
X402Y727D02*
X409Y727D01*
X426Y727D02*
X432Y727D01*
X453Y727D02*
X459Y727D01*
X293Y726D02*
X301Y726D01*
X326Y726D02*
X340Y726D01*
X376Y726D02*
X382Y726D01*
X389Y726D02*
X396Y726D01*
X401Y726D02*
X408Y726D01*
X426Y726D02*
X432Y726D01*
X453Y726D02*
X459Y726D01*
X294Y725D02*
X302Y725D01*
X326Y725D02*
X342Y725D01*
X376Y725D02*
X382Y725D01*
X390Y725D02*
X396Y725D01*
X400Y725D02*
X408Y725D01*
X426Y725D02*
X432Y725D01*
X453Y725D02*
X459Y725D01*
X294Y724D02*
X302Y724D01*
X326Y724D02*
X343Y724D01*
X376Y724D02*
X382Y724D01*
X390Y724D02*
X396Y724D01*
X399Y724D02*
X407Y724D01*
X426Y724D02*
X432Y724D01*
X453Y724D02*
X459Y724D01*
X295Y723D02*
X303Y723D01*
X326Y723D02*
X332Y723D01*
X334Y723D02*
X344Y723D01*
X376Y723D02*
X382Y723D01*
X390Y723D02*
X407Y723D01*
X426Y723D02*
X432Y723D01*
X453Y723D02*
X459Y723D01*
X296Y722D02*
X304Y722D01*
X326Y722D02*
X332Y722D01*
X335Y722D02*
X345Y722D01*
X376Y722D02*
X382Y722D01*
X391Y722D02*
X406Y722D01*
X426Y722D02*
X432Y722D01*
X453Y722D02*
X459Y722D01*
X297Y721D02*
X305Y721D01*
X326Y721D02*
X332Y721D01*
X336Y721D02*
X346Y721D01*
X376Y721D02*
X382Y721D01*
X391Y721D02*
X405Y721D01*
X426Y721D02*
X432Y721D01*
X453Y721D02*
X459Y721D01*
X298Y720D02*
X306Y720D01*
X326Y720D02*
X332Y720D01*
X338Y720D02*
X347Y720D01*
X376Y720D02*
X382Y720D01*
X391Y720D02*
X404Y720D01*
X426Y720D02*
X432Y720D01*
X453Y720D02*
X459Y720D01*
X298Y719D02*
X306Y719D01*
X326Y719D02*
X332Y719D01*
X339Y719D02*
X349Y719D01*
X376Y719D02*
X382Y719D01*
X392Y719D02*
X403Y719D01*
X426Y719D02*
X432Y719D01*
X453Y719D02*
X459Y719D01*
X299Y718D02*
X307Y718D01*
X326Y718D02*
X332Y718D01*
X340Y718D02*
X350Y718D01*
X376Y718D02*
X382Y718D01*
X392Y718D02*
X402Y718D01*
X426Y718D02*
X432Y718D01*
X453Y718D02*
X459Y718D01*
X277Y717D02*
X280Y717D01*
X300Y717D02*
X308Y717D01*
X326Y717D02*
X332Y717D01*
X341Y717D02*
X351Y717D01*
X376Y717D02*
X382Y717D01*
X391Y717D02*
X401Y717D01*
X426Y717D02*
X432Y717D01*
X453Y717D02*
X459Y717D01*
X276Y716D02*
X281Y716D01*
X301Y716D02*
X308Y716D01*
X326Y716D02*
X332Y716D01*
X342Y716D02*
X352Y716D01*
X376Y716D02*
X382Y716D01*
X389Y716D02*
X400Y716D01*
X426Y716D02*
X432Y716D01*
X453Y716D02*
X459Y716D01*
X276Y715D02*
X281Y715D01*
X301Y715D02*
X309Y715D01*
X326Y715D02*
X332Y715D01*
X343Y715D02*
X353Y715D01*
X376Y715D02*
X382Y715D01*
X388Y715D02*
X400Y715D01*
X426Y715D02*
X432Y715D01*
X453Y715D02*
X459Y715D01*
X276Y714D02*
X282Y714D01*
X302Y714D02*
X309Y714D01*
X326Y714D02*
X332Y714D01*
X345Y714D02*
X354Y714D01*
X376Y714D02*
X382Y714D01*
X387Y714D02*
X400Y714D01*
X426Y714D02*
X432Y714D01*
X453Y714D02*
X459Y714D01*
X276Y713D02*
X282Y713D01*
X303Y713D02*
X309Y713D01*
X326Y713D02*
X332Y713D01*
X346Y713D02*
X356Y713D01*
X376Y713D02*
X382Y713D01*
X386Y713D02*
X401Y713D01*
X426Y713D02*
X433Y713D01*
X452Y713D02*
X459Y713D01*
X276Y712D02*
X283Y712D01*
X303Y712D02*
X309Y712D01*
X326Y712D02*
X332Y712D01*
X347Y712D02*
X357Y712D01*
X376Y712D02*
X383Y712D01*
X385Y712D02*
X401Y712D01*
X426Y712D02*
X434Y712D01*
X450Y712D02*
X459Y712D01*
X276Y711D02*
X309Y711D01*
X326Y711D02*
X332Y711D01*
X348Y711D02*
X358Y711D01*
X376Y711D02*
X393Y711D01*
X395Y711D02*
X408Y711D01*
X427Y711D02*
X458Y711D01*
X277Y710D02*
X309Y710D01*
X326Y710D02*
X332Y710D01*
X349Y710D02*
X359Y710D01*
X376Y710D02*
X392Y710D01*
X395Y710D02*
X409Y710D01*
X427Y710D02*
X458Y710D01*
X277Y709D02*
X308Y709D01*
X326Y709D02*
X332Y709D01*
X350Y709D02*
X359Y709D01*
X377Y709D02*
X391Y709D01*
X396Y709D02*
X409Y709D01*
X428Y709D02*
X457Y709D01*
X278Y708D02*
X307Y708D01*
X326Y708D02*
X332Y708D01*
X352Y708D02*
X359Y708D01*
X378Y708D02*
X390Y708D01*
X396Y708D02*
X409Y708D01*
X429Y708D02*
X456Y708D01*
X279Y707D02*
X307Y707D01*
X326Y707D02*
X331Y707D01*
X353Y707D02*
X359Y707D01*
X379Y707D02*
X389Y707D01*
X396Y707D02*
X409Y707D01*
X430Y707D02*
X455Y707D01*
X281Y706D02*
X305Y706D01*
X327Y706D02*
X331Y706D01*
X354Y706D02*
X358Y706D01*
X380Y706D02*
X387Y706D01*
X397Y706D02*
X408Y706D01*
X431Y706D02*
X453Y706D01*
X284Y705D02*
X303Y705D01*
X328Y705D02*
X329Y705D01*
X356Y705D02*
X356Y705D01*
X383Y705D02*
X384Y705D01*
X397Y705D02*
X406Y705D01*
X435Y705D02*
X450Y705D01*
D02*
G04 End of Silk1*
M02*