; NON-PLATED HOLES START AT T1
; THROUGH (PLATED) HOLES START AT T100
M48
INCH
T100C0.039370
T101C0.040000
%
T100
X005583Y006694
X005218Y001729
X005107Y009952
X005107Y011952
X002218Y003729
X002107Y009952
X002107Y011952
X001685Y005696
X005583Y008190
X005583Y005696
X001685Y008190
X002218Y001729
X005218Y003729
X001685Y006694
T101
X000634Y005645
X006634Y009645
X000634Y002645
X006634Y004645
X000634Y007645
X006634Y006645
X000634Y000645
X006634Y001645
X000634Y003645
X000634Y009645
X006634Y010645
X006634Y008645
X000634Y004645
X000634Y008645
X006634Y003645
X000634Y006645
X006634Y002645
X006634Y011645
X000634Y001645
X006634Y007645
X000634Y010645
X006634Y000645
X000634Y011645
X006634Y005645
T00
M30
